<?xml version="1.0" encoding="utf-8" standalone="no"?>
<!DOCTYPE svg PUBLIC "-//W3C//DTD SVG 1.1//EN"
  "http://www.w3.org/Graphics/SVG/1.1/DTD/svg11.dtd">
<!-- Created with matplotlib (http://matplotlib.org/) -->
<svg height="814pt" version="1.1" viewBox="0 0 488 814" width="488pt" xmlns="http://www.w3.org/2000/svg" xmlns:xlink="http://www.w3.org/1999/xlink">
 <defs>
  <style type="text/css">
*{stroke-linecap:butt;stroke-linejoin:round;}
  </style>
 </defs>
 <g id="figure_1">
  <g id="patch_1">
   <path d="M 0 814.363125 
L 488.567187 814.363125 
L 488.567187 0 
L 0 0 
z
" style="fill:#ffffff;"/>
  </g>
  <g id="axes_1">
   <g id="patch_2">
    <path d="M 34.967188 807.163125 
L 481.367188 807.163125 
L 481.367188 31.003125 
L 34.967188 31.003125 
z
" style="fill:#ffffff;"/>
   </g>
   <g id="matplotlib.axis_1">
    <g id="xtick_1">
     <g id="line2d_1"/>
     <g id="text_1">
      <!-- 0 -->
      <defs>
       <path d="M 4.15625 35.296875 
Q 4.15625 48 6.765625 55.734375 
Q 9.375 63.484375 14.515625 67.671875 
Q 19.671875 71.875 27.484375 71.875 
Q 33.25 71.875 37.59375 69.546875 
Q 41.9375 67.234375 44.765625 62.859375 
Q 47.609375 58.5 49.21875 52.21875 
Q 50.828125 45.953125 50.828125 35.296875 
Q 50.828125 22.703125 48.234375 14.96875 
Q 45.65625 7.234375 40.5 3 
Q 35.359375 -1.21875 27.484375 -1.21875 
Q 17.140625 -1.21875 11.234375 6.203125 
Q 4.15625 15.140625 4.15625 35.296875 
z
M 13.1875 35.296875 
Q 13.1875 17.671875 17.3125 11.828125 
Q 21.4375 6 27.484375 6 
Q 33.546875 6 37.671875 11.859375 
Q 41.796875 17.71875 41.796875 35.296875 
Q 41.796875 52.984375 37.671875 58.78125 
Q 33.546875 64.59375 27.390625 64.59375 
Q 21.34375 64.59375 17.71875 59.46875 
Q 13.1875 52.9375 13.1875 35.296875 
z
" id="ArialMT-30"/>
      </defs>
      <g style="fill:#262626;" transform="translate(32.186719 25.515625)scale(0.1 -0.1)">
       <use xlink:href="#ArialMT-30"/>
      </g>
     </g>
    </g>
    <g id="xtick_2">
     <g id="line2d_2"/>
     <g id="text_2">
      <!-- 2 -->
      <defs>
       <path d="M 50.34375 8.453125 
L 50.34375 0 
L 3.03125 0 
Q 2.9375 3.171875 4.046875 6.109375 
Q 5.859375 10.9375 9.828125 15.625 
Q 13.8125 20.3125 21.34375 26.46875 
Q 33.015625 36.03125 37.109375 41.625 
Q 41.21875 47.21875 41.21875 52.203125 
Q 41.21875 57.421875 37.46875 61 
Q 33.734375 64.59375 27.734375 64.59375 
Q 21.390625 64.59375 17.578125 60.78125 
Q 13.765625 56.984375 13.71875 50.25 
L 4.6875 51.171875 
Q 5.609375 61.28125 11.65625 66.578125 
Q 17.71875 71.875 27.9375 71.875 
Q 38.234375 71.875 44.234375 66.15625 
Q 50.25 60.453125 50.25 52 
Q 50.25 47.703125 48.484375 43.546875 
Q 46.734375 39.40625 42.65625 34.8125 
Q 38.578125 30.21875 29.109375 22.21875 
Q 21.1875 15.578125 18.9375 13.203125 
Q 16.703125 10.84375 15.234375 8.453125 
z
" id="ArialMT-32"/>
      </defs>
      <g style="fill:#262626;" transform="translate(76.938598 25.515625)scale(0.1 -0.1)">
       <use xlink:href="#ArialMT-32"/>
      </g>
     </g>
    </g>
    <g id="xtick_3">
     <g id="line2d_3"/>
     <g id="text_3">
      <!-- 4 -->
      <defs>
       <path d="M 32.328125 0 
L 32.328125 17.140625 
L 1.265625 17.140625 
L 1.265625 25.203125 
L 33.9375 71.578125 
L 41.109375 71.578125 
L 41.109375 25.203125 
L 50.78125 25.203125 
L 50.78125 17.140625 
L 41.109375 17.140625 
L 41.109375 0 
z
M 32.328125 25.203125 
L 32.328125 57.46875 
L 9.90625 25.203125 
z
" id="ArialMT-34"/>
      </defs>
      <g style="fill:#262626;" transform="translate(121.690478 25.515625)scale(0.1 -0.1)">
       <use xlink:href="#ArialMT-34"/>
      </g>
     </g>
    </g>
    <g id="xtick_4">
     <g id="line2d_4"/>
     <g id="text_4">
      <!-- 6 -->
      <defs>
       <path d="M 49.75 54.046875 
L 41.015625 53.375 
Q 39.84375 58.546875 37.703125 60.890625 
Q 34.125 64.65625 28.90625 64.65625 
Q 24.703125 64.65625 21.53125 62.3125 
Q 17.390625 59.28125 14.984375 53.46875 
Q 12.59375 47.65625 12.5 36.921875 
Q 15.671875 41.75 20.265625 44.09375 
Q 24.859375 46.4375 29.890625 46.4375 
Q 38.671875 46.4375 44.84375 39.96875 
Q 51.03125 33.5 51.03125 23.25 
Q 51.03125 16.5 48.125 10.71875 
Q 45.21875 4.9375 40.140625 1.859375 
Q 35.0625 -1.21875 28.609375 -1.21875 
Q 17.625 -1.21875 10.6875 6.859375 
Q 3.765625 14.9375 3.765625 33.5 
Q 3.765625 54.25 11.421875 63.671875 
Q 18.109375 71.875 29.4375 71.875 
Q 37.890625 71.875 43.28125 67.140625 
Q 48.6875 62.40625 49.75 54.046875 
z
M 13.875 23.1875 
Q 13.875 18.65625 15.796875 14.5 
Q 17.71875 10.359375 21.1875 8.171875 
Q 24.65625 6 28.46875 6 
Q 34.03125 6 38.03125 10.484375 
Q 42.046875 14.984375 42.046875 22.703125 
Q 42.046875 30.125 38.078125 34.390625 
Q 34.125 38.671875 28.125 38.671875 
Q 22.171875 38.671875 18.015625 34.390625 
Q 13.875 30.125 13.875 23.1875 
z
" id="ArialMT-36"/>
      </defs>
      <g style="fill:#262626;" transform="translate(166.442358 25.515625)scale(0.1 -0.1)">
       <use xlink:href="#ArialMT-36"/>
      </g>
     </g>
    </g>
    <g id="xtick_5">
     <g id="line2d_5"/>
     <g id="text_5">
      <!-- 8 -->
      <defs>
       <path d="M 17.671875 38.8125 
Q 12.203125 40.828125 9.5625 44.53125 
Q 6.9375 48.25 6.9375 53.421875 
Q 6.9375 61.234375 12.546875 66.546875 
Q 18.171875 71.875 27.484375 71.875 
Q 36.859375 71.875 42.578125 66.421875 
Q 48.296875 60.984375 48.296875 53.171875 
Q 48.296875 48.1875 45.671875 44.5 
Q 43.0625 40.828125 37.75 38.8125 
Q 44.34375 36.671875 47.78125 31.875 
Q 51.21875 27.09375 51.21875 20.453125 
Q 51.21875 11.28125 44.71875 5.03125 
Q 38.234375 -1.21875 27.640625 -1.21875 
Q 17.046875 -1.21875 10.546875 5.046875 
Q 4.046875 11.328125 4.046875 20.703125 
Q 4.046875 27.6875 7.59375 32.390625 
Q 11.140625 37.109375 17.671875 38.8125 
z
M 15.921875 53.71875 
Q 15.921875 48.640625 19.1875 45.40625 
Q 22.46875 42.1875 27.6875 42.1875 
Q 32.765625 42.1875 36.015625 45.375 
Q 39.265625 48.578125 39.265625 53.21875 
Q 39.265625 58.0625 35.90625 61.359375 
Q 32.5625 64.65625 27.59375 64.65625 
Q 22.5625 64.65625 19.234375 61.421875 
Q 15.921875 58.203125 15.921875 53.71875 
z
M 13.09375 20.65625 
Q 13.09375 16.890625 14.875 13.375 
Q 16.65625 9.859375 20.171875 7.921875 
Q 23.6875 6 27.734375 6 
Q 34.03125 6 38.125 10.046875 
Q 42.234375 14.109375 42.234375 20.359375 
Q 42.234375 26.703125 38.015625 30.859375 
Q 33.796875 35.015625 27.4375 35.015625 
Q 21.234375 35.015625 17.15625 30.90625 
Q 13.09375 26.8125 13.09375 20.65625 
z
" id="ArialMT-38"/>
      </defs>
      <g style="fill:#262626;" transform="translate(211.194238 25.515625)scale(0.1 -0.1)">
       <use xlink:href="#ArialMT-38"/>
      </g>
     </g>
    </g>
    <g id="xtick_6">
     <g id="line2d_6"/>
     <g id="text_6">
      <!-- 10 -->
      <defs>
       <path d="M 37.25 0 
L 28.46875 0 
L 28.46875 56 
Q 25.296875 52.984375 20.140625 49.953125 
Q 14.984375 46.921875 10.890625 45.40625 
L 10.890625 53.90625 
Q 18.265625 57.375 23.78125 62.296875 
Q 29.296875 67.234375 31.59375 71.875 
L 37.25 71.875 
z
" id="ArialMT-31"/>
      </defs>
      <g style="fill:#262626;" transform="translate(253.165648 25.515625)scale(0.1 -0.1)">
       <use xlink:href="#ArialMT-31"/>
       <use x="55.615234" xlink:href="#ArialMT-30"/>
      </g>
     </g>
    </g>
    <g id="xtick_7">
     <g id="line2d_7"/>
     <g id="text_7">
      <!-- 12 -->
      <g style="fill:#262626;" transform="translate(297.917528 25.515625)scale(0.1 -0.1)">
       <use xlink:href="#ArialMT-31"/>
       <use x="55.615234" xlink:href="#ArialMT-32"/>
      </g>
     </g>
    </g>
    <g id="xtick_8">
     <g id="line2d_8"/>
     <g id="text_8">
      <!-- 14 -->
      <g style="fill:#262626;" transform="translate(342.669408 25.515625)scale(0.1 -0.1)">
       <use xlink:href="#ArialMT-31"/>
       <use x="55.615234" xlink:href="#ArialMT-34"/>
      </g>
     </g>
    </g>
    <g id="xtick_9">
     <g id="line2d_9"/>
     <g id="text_9">
      <!-- 16 -->
      <g style="fill:#262626;" transform="translate(387.421288 25.515625)scale(0.1 -0.1)">
       <use xlink:href="#ArialMT-31"/>
       <use x="55.615234" xlink:href="#ArialMT-36"/>
      </g>
     </g>
    </g>
    <g id="xtick_10">
     <g id="line2d_10"/>
     <g id="text_10">
      <!-- 18 -->
      <g style="fill:#262626;" transform="translate(432.173167 25.515625)scale(0.1 -0.1)">
       <use xlink:href="#ArialMT-31"/>
       <use x="55.615234" xlink:href="#ArialMT-38"/>
      </g>
     </g>
    </g>
    <g id="text_11">
     <!-- Count -->
     <defs>
      <path d="M 58.796875 25.09375 
L 68.265625 22.703125 
Q 65.28125 11.03125 57.546875 4.90625 
Q 49.8125 -1.21875 38.625 -1.21875 
Q 27.046875 -1.21875 19.796875 3.484375 
Q 12.546875 8.203125 8.765625 17.140625 
Q 4.984375 26.078125 4.984375 36.328125 
Q 4.984375 47.515625 9.25 55.828125 
Q 13.53125 64.15625 21.40625 68.46875 
Q 29.296875 72.796875 38.765625 72.796875 
Q 49.515625 72.796875 56.828125 67.328125 
Q 64.15625 61.859375 67.046875 51.953125 
L 57.71875 49.75 
Q 55.21875 57.5625 50.484375 61.125 
Q 45.75 64.703125 38.578125 64.703125 
Q 30.328125 64.703125 24.78125 60.734375 
Q 19.234375 56.78125 16.984375 50.109375 
Q 14.75 43.453125 14.75 36.375 
Q 14.75 27.25 17.40625 20.4375 
Q 20.0625 13.625 25.671875 10.25 
Q 31.296875 6.890625 37.84375 6.890625 
Q 45.796875 6.890625 51.3125 11.46875 
Q 56.84375 16.0625 58.796875 25.09375 
z
" id="ArialMT-43"/>
      <path d="M 3.328125 25.921875 
Q 3.328125 40.328125 11.328125 47.265625 
Q 18.015625 53.03125 27.640625 53.03125 
Q 38.328125 53.03125 45.109375 46.015625 
Q 51.90625 39.015625 51.90625 26.65625 
Q 51.90625 16.65625 48.90625 10.90625 
Q 45.90625 5.171875 40.15625 2 
Q 34.421875 -1.171875 27.640625 -1.171875 
Q 16.75 -1.171875 10.03125 5.8125 
Q 3.328125 12.796875 3.328125 25.921875 
z
M 12.359375 25.921875 
Q 12.359375 15.96875 16.703125 11.015625 
Q 21.046875 6.0625 27.640625 6.0625 
Q 34.1875 6.0625 38.53125 11.03125 
Q 42.875 16.015625 42.875 26.21875 
Q 42.875 35.84375 38.5 40.796875 
Q 34.125 45.75 27.640625 45.75 
Q 21.046875 45.75 16.703125 40.8125 
Q 12.359375 35.890625 12.359375 25.921875 
z
" id="ArialMT-6f"/>
      <path d="M 40.578125 0 
L 40.578125 7.625 
Q 34.515625 -1.171875 24.125 -1.171875 
Q 19.53125 -1.171875 15.546875 0.578125 
Q 11.578125 2.34375 9.640625 5 
Q 7.71875 7.671875 6.9375 11.53125 
Q 6.390625 14.109375 6.390625 19.734375 
L 6.390625 51.859375 
L 15.1875 51.859375 
L 15.1875 23.09375 
Q 15.1875 16.21875 15.71875 13.8125 
Q 16.546875 10.359375 19.234375 8.375 
Q 21.921875 6.390625 25.875 6.390625 
Q 29.828125 6.390625 33.296875 8.421875 
Q 36.765625 10.453125 38.203125 13.9375 
Q 39.65625 17.4375 39.65625 24.078125 
L 39.65625 51.859375 
L 48.4375 51.859375 
L 48.4375 0 
z
" id="ArialMT-75"/>
      <path d="M 6.59375 0 
L 6.59375 51.859375 
L 14.5 51.859375 
L 14.5 44.484375 
Q 20.21875 53.03125 31 53.03125 
Q 35.6875 53.03125 39.625 51.34375 
Q 43.5625 49.65625 45.515625 46.921875 
Q 47.46875 44.1875 48.25 40.4375 
Q 48.734375 37.984375 48.734375 31.890625 
L 48.734375 0 
L 39.9375 0 
L 39.9375 31.546875 
Q 39.9375 36.921875 38.90625 39.578125 
Q 37.890625 42.234375 35.28125 43.8125 
Q 32.671875 45.40625 29.15625 45.40625 
Q 23.53125 45.40625 19.453125 41.84375 
Q 15.375 38.28125 15.375 28.328125 
L 15.375 0 
z
" id="ArialMT-6e"/>
      <path d="M 25.78125 7.859375 
L 27.046875 0.09375 
Q 23.34375 -0.6875 20.40625 -0.6875 
Q 15.625 -0.6875 12.984375 0.828125 
Q 10.359375 2.34375 9.28125 4.8125 
Q 8.203125 7.28125 8.203125 15.1875 
L 8.203125 45.015625 
L 1.765625 45.015625 
L 1.765625 51.859375 
L 8.203125 51.859375 
L 8.203125 64.703125 
L 16.9375 69.96875 
L 16.9375 51.859375 
L 25.78125 51.859375 
L 25.78125 45.015625 
L 16.9375 45.015625 
L 16.9375 14.703125 
Q 16.9375 10.9375 17.40625 9.859375 
Q 17.875 8.796875 18.921875 8.15625 
Q 19.96875 7.515625 21.921875 7.515625 
Q 23.390625 7.515625 25.78125 7.859375 
z
" id="ArialMT-74"/>
     </defs>
     <g style="fill:#262626;" transform="translate(244.825781 14.357812)scale(0.1 -0.1)">
      <use xlink:href="#ArialMT-43"/>
      <use x="72.216797" xlink:href="#ArialMT-6f"/>
      <use x="127.832031" xlink:href="#ArialMT-75"/>
      <use x="183.447266" xlink:href="#ArialMT-6e"/>
      <use x="239.0625" xlink:href="#ArialMT-74"/>
     </g>
    </g>
   </g>
   <g id="matplotlib.axis_2">
    <g id="ytick_1">
     <g id="line2d_11"/>
    </g>
    <g id="ytick_2">
     <g id="line2d_12"/>
     <g id="text_12">
      <!-- 21 -->
      <g style="fill:#262626;" transform="translate(20.345313 81.4928)scale(0.1 -0.1)">
       <use xlink:href="#ArialMT-32"/>
       <use x="55.615234" xlink:href="#ArialMT-31"/>
      </g>
     </g>
    </g>
    <g id="ytick_3">
     <g id="line2d_13"/>
    </g>
    <g id="ytick_4">
     <g id="line2d_14"/>
     <g id="text_13">
      <!-- 1 -->
      <g style="fill:#262626;" transform="translate(25.90625 138.354339)scale(0.1 -0.1)">
       <use xlink:href="#ArialMT-31"/>
      </g>
     </g>
    </g>
    <g id="ytick_5">
     <g id="line2d_15"/>
     <g id="text_14">
      <!-- 2 -->
      <g style="fill:#262626;" transform="translate(25.90625 166.785108)scale(0.1 -0.1)">
       <use xlink:href="#ArialMT-32"/>
      </g>
     </g>
    </g>
    <g id="ytick_6">
     <g id="line2d_16"/>
     <g id="text_15">
      <!-- 3 -->
      <defs>
       <path d="M 4.203125 18.890625 
L 12.984375 20.0625 
Q 14.5 12.59375 18.140625 9.296875 
Q 21.78125 6 27 6 
Q 33.203125 6 37.46875 10.296875 
Q 41.75 14.59375 41.75 20.953125 
Q 41.75 27 37.796875 30.921875 
Q 33.84375 34.859375 27.734375 34.859375 
Q 25.25 34.859375 21.53125 33.890625 
L 22.515625 41.609375 
Q 23.390625 41.5 23.921875 41.5 
Q 29.546875 41.5 34.03125 44.421875 
Q 38.53125 47.359375 38.53125 53.46875 
Q 38.53125 58.296875 35.25 61.46875 
Q 31.984375 64.65625 26.8125 64.65625 
Q 21.6875 64.65625 18.265625 61.421875 
Q 14.84375 58.203125 13.875 51.765625 
L 5.078125 53.328125 
Q 6.6875 62.15625 12.390625 67.015625 
Q 18.109375 71.875 26.609375 71.875 
Q 32.46875 71.875 37.390625 69.359375 
Q 42.328125 66.84375 44.9375 62.5 
Q 47.5625 58.15625 47.5625 53.265625 
Q 47.5625 48.640625 45.0625 44.828125 
Q 42.578125 41.015625 37.703125 38.765625 
Q 44.046875 37.3125 47.5625 32.6875 
Q 51.078125 28.078125 51.078125 21.140625 
Q 51.078125 11.765625 44.234375 5.25 
Q 37.40625 -1.265625 26.953125 -1.265625 
Q 17.53125 -1.265625 11.296875 4.34375 
Q 5.078125 9.96875 4.203125 18.890625 
z
" id="ArialMT-33"/>
      </defs>
      <g style="fill:#262626;" transform="translate(25.90625 195.215877)scale(0.1 -0.1)">
       <use xlink:href="#ArialMT-33"/>
      </g>
     </g>
    </g>
    <g id="ytick_7">
     <g id="line2d_17"/>
     <g id="text_16">
      <!-- 4 -->
      <g style="fill:#262626;" transform="translate(25.90625 223.646647)scale(0.1 -0.1)">
       <use xlink:href="#ArialMT-34"/>
      </g>
     </g>
    </g>
    <g id="ytick_8">
     <g id="line2d_18"/>
     <g id="text_17">
      <!-- 5 -->
      <defs>
       <path d="M 4.15625 18.75 
L 13.375 19.53125 
Q 14.40625 12.796875 18.140625 9.390625 
Q 21.875 6 27.15625 6 
Q 33.5 6 37.890625 10.78125 
Q 42.28125 15.578125 42.28125 23.484375 
Q 42.28125 31 38.0625 35.34375 
Q 33.84375 39.703125 27 39.703125 
Q 22.75 39.703125 19.328125 37.765625 
Q 15.921875 35.84375 13.96875 32.765625 
L 5.71875 33.84375 
L 12.640625 70.609375 
L 48.25 70.609375 
L 48.25 62.203125 
L 19.671875 62.203125 
L 15.828125 42.96875 
Q 22.265625 47.46875 29.34375 47.46875 
Q 38.71875 47.46875 45.15625 40.96875 
Q 51.609375 34.46875 51.609375 24.265625 
Q 51.609375 14.546875 45.953125 7.46875 
Q 39.0625 -1.21875 27.15625 -1.21875 
Q 17.390625 -1.21875 11.203125 4.25 
Q 5.03125 9.71875 4.15625 18.75 
z
" id="ArialMT-35"/>
      </defs>
      <g style="fill:#262626;" transform="translate(25.90625 252.077416)scale(0.1 -0.1)">
       <use xlink:href="#ArialMT-35"/>
      </g>
     </g>
    </g>
    <g id="ytick_9">
     <g id="line2d_19"/>
     <g id="text_18">
      <!-- 8 -->
      <g style="fill:#262626;" transform="translate(25.90625 280.508185)scale(0.1 -0.1)">
       <use xlink:href="#ArialMT-38"/>
      </g>
     </g>
    </g>
    <g id="ytick_10">
     <g id="line2d_20"/>
     <g id="text_19">
      <!-- 9 -->
      <defs>
       <path d="M 5.46875 16.546875 
L 13.921875 17.328125 
Q 14.984375 11.375 18.015625 8.6875 
Q 21.046875 6 25.78125 6 
Q 29.828125 6 32.875 7.859375 
Q 35.9375 9.71875 37.890625 12.8125 
Q 39.84375 15.921875 41.15625 21.1875 
Q 42.484375 26.46875 42.484375 31.9375 
Q 42.484375 32.515625 42.4375 33.6875 
Q 39.796875 29.5 35.234375 26.875 
Q 30.671875 24.265625 25.34375 24.265625 
Q 16.453125 24.265625 10.296875 30.703125 
Q 4.15625 37.15625 4.15625 47.703125 
Q 4.15625 58.59375 10.578125 65.234375 
Q 17 71.875 26.65625 71.875 
Q 33.640625 71.875 39.421875 68.109375 
Q 45.21875 64.359375 48.21875 57.390625 
Q 51.21875 50.4375 51.21875 37.25 
Q 51.21875 23.53125 48.234375 15.40625 
Q 45.265625 7.28125 39.375 3.03125 
Q 33.5 -1.21875 25.59375 -1.21875 
Q 17.1875 -1.21875 11.859375 3.4375 
Q 6.546875 8.109375 5.46875 16.546875 
z
M 41.453125 48.140625 
Q 41.453125 55.71875 37.421875 60.15625 
Q 33.40625 64.59375 27.734375 64.59375 
Q 21.875 64.59375 17.53125 59.8125 
Q 13.1875 55.03125 13.1875 47.40625 
Q 13.1875 40.578125 17.3125 36.296875 
Q 21.4375 32.03125 27.484375 32.03125 
Q 33.59375 32.03125 37.515625 36.296875 
Q 41.453125 40.578125 41.453125 48.140625 
z
" id="ArialMT-39"/>
      </defs>
      <g style="fill:#262626;" transform="translate(25.90625 308.938954)scale(0.1 -0.1)">
       <use xlink:href="#ArialMT-39"/>
      </g>
     </g>
    </g>
    <g id="ytick_11">
     <g id="line2d_21"/>
     <g id="text_20">
      <!-- 12 -->
      <g style="fill:#262626;" transform="translate(20.345313 337.369724)scale(0.1 -0.1)">
       <use xlink:href="#ArialMT-31"/>
       <use x="55.615234" xlink:href="#ArialMT-32"/>
      </g>
     </g>
    </g>
    <g id="ytick_12">
     <g id="line2d_22"/>
    </g>
    <g id="ytick_13">
     <g id="line2d_23"/>
     <g id="text_21">
      <!-- 6 -->
      <g style="fill:#262626;" transform="translate(25.90625 394.231262)scale(0.1 -0.1)">
       <use xlink:href="#ArialMT-36"/>
      </g>
     </g>
    </g>
    <g id="ytick_14">
     <g id="line2d_24"/>
     <g id="text_22">
      <!-- 10 -->
      <g style="fill:#262626;" transform="translate(20.345313 422.662031)scale(0.1 -0.1)">
       <use xlink:href="#ArialMT-31"/>
       <use x="55.615234" xlink:href="#ArialMT-30"/>
      </g>
     </g>
    </g>
    <g id="ytick_15">
     <g id="line2d_25"/>
     <g id="text_23">
      <!-- 11 -->
      <g style="fill:#262626;" transform="translate(20.35625 451.0928)scale(0.1 -0.1)">
       <use xlink:href="#ArialMT-31"/>
       <use x="55.505859" xlink:href="#ArialMT-31"/>
      </g>
     </g>
    </g>
    <g id="ytick_16">
     <g id="line2d_26"/>
     <g id="text_24">
      <!-- 13 -->
      <g style="fill:#262626;" transform="translate(20.345313 479.52357)scale(0.1 -0.1)">
       <use xlink:href="#ArialMT-31"/>
       <use x="55.615234" xlink:href="#ArialMT-33"/>
      </g>
     </g>
    </g>
    <g id="ytick_17">
     <g id="line2d_27"/>
     <g id="text_25">
      <!-- 15 -->
      <g style="fill:#262626;" transform="translate(20.345313 507.954339)scale(0.1 -0.1)">
       <use xlink:href="#ArialMT-31"/>
       <use x="55.615234" xlink:href="#ArialMT-35"/>
      </g>
     </g>
    </g>
    <g id="ytick_18">
     <g id="line2d_28"/>
     <g id="text_26">
      <!-- 17 -->
      <defs>
       <path d="M 4.734375 62.203125 
L 4.734375 70.65625 
L 51.078125 70.65625 
L 51.078125 63.8125 
Q 44.234375 56.546875 37.515625 44.484375 
Q 30.8125 32.421875 27.15625 19.671875 
Q 24.515625 10.6875 23.78125 0 
L 14.75 0 
Q 14.890625 8.453125 18.0625 20.40625 
Q 21.234375 32.375 27.171875 43.484375 
Q 33.109375 54.59375 39.796875 62.203125 
z
" id="ArialMT-37"/>
      </defs>
      <g style="fill:#262626;" transform="translate(20.345313 536.385108)scale(0.1 -0.1)">
       <use xlink:href="#ArialMT-31"/>
       <use x="55.615234" xlink:href="#ArialMT-37"/>
      </g>
     </g>
    </g>
    <g id="ytick_19">
     <g id="line2d_29"/>
     <g id="text_27">
      <!-- 18 -->
      <g style="fill:#262626;" transform="translate(20.345313 564.815877)scale(0.1 -0.1)">
       <use xlink:href="#ArialMT-31"/>
       <use x="55.615234" xlink:href="#ArialMT-38"/>
      </g>
     </g>
    </g>
    <g id="ytick_20">
     <g id="line2d_30"/>
     <g id="text_28">
      <!-- 22 -->
      <g style="fill:#262626;" transform="translate(20.345313 593.246647)scale(0.1 -0.1)">
       <use xlink:href="#ArialMT-32"/>
       <use x="55.615234" xlink:href="#ArialMT-32"/>
      </g>
     </g>
    </g>
    <g id="ytick_21">
     <g id="line2d_31"/>
    </g>
    <g id="ytick_22">
     <g id="line2d_32"/>
     <g id="text_29">
      <!-- 7 -->
      <g style="fill:#262626;" transform="translate(25.90625 650.108185)scale(0.1 -0.1)">
       <use xlink:href="#ArialMT-37"/>
      </g>
     </g>
    </g>
    <g id="ytick_23">
     <g id="line2d_33"/>
     <g id="text_30">
      <!-- 14 -->
      <g style="fill:#262626;" transform="translate(20.345313 678.538954)scale(0.1 -0.1)">
       <use xlink:href="#ArialMT-31"/>
       <use x="55.615234" xlink:href="#ArialMT-34"/>
      </g>
     </g>
    </g>
    <g id="ytick_24">
     <g id="line2d_34"/>
     <g id="text_31">
      <!-- 16 -->
      <g style="fill:#262626;" transform="translate(20.345313 706.969724)scale(0.1 -0.1)">
       <use xlink:href="#ArialMT-31"/>
       <use x="55.615234" xlink:href="#ArialMT-36"/>
      </g>
     </g>
    </g>
    <g id="ytick_25">
     <g id="line2d_35"/>
     <g id="text_32">
      <!-- 19 -->
      <g style="fill:#262626;" transform="translate(20.345313 735.400493)scale(0.1 -0.1)">
       <use xlink:href="#ArialMT-31"/>
       <use x="55.615234" xlink:href="#ArialMT-39"/>
      </g>
     </g>
    </g>
    <g id="ytick_26">
     <g id="line2d_36"/>
     <g id="text_33">
      <!-- 20 -->
      <g style="fill:#262626;" transform="translate(20.345313 763.831262)scale(0.1 -0.1)">
       <use xlink:href="#ArialMT-32"/>
       <use x="55.615234" xlink:href="#ArialMT-30"/>
      </g>
     </g>
    </g>
    <g id="ytick_27">
     <g id="line2d_37"/>
    </g>
    <g id="text_34">
     <!--                       No Result                                                            Failure                                                                        Partial Success                                        Success -->
     <defs>
      <path id="ArialMT-20"/>
      <path d="M 7.625 0 
L 7.625 71.578125 
L 17.328125 71.578125 
L 54.9375 15.375 
L 54.9375 71.578125 
L 64.015625 71.578125 
L 64.015625 0 
L 54.296875 0 
L 16.703125 56.25 
L 16.703125 0 
z
" id="ArialMT-4e"/>
      <path d="M 7.859375 0 
L 7.859375 71.578125 
L 39.59375 71.578125 
Q 49.171875 71.578125 54.140625 69.640625 
Q 59.125 67.71875 62.109375 62.828125 
Q 65.09375 57.953125 65.09375 52.046875 
Q 65.09375 44.4375 60.15625 39.203125 
Q 55.21875 33.984375 44.921875 32.5625 
Q 48.6875 30.765625 50.640625 29 
Q 54.78125 25.203125 58.5 19.484375 
L 70.953125 0 
L 59.03125 0 
L 49.5625 14.890625 
Q 45.40625 21.34375 42.71875 24.75 
Q 40.046875 28.171875 37.921875 29.53125 
Q 35.796875 30.90625 33.59375 31.453125 
Q 31.984375 31.78125 28.328125 31.78125 
L 17.328125 31.78125 
L 17.328125 0 
z
M 17.328125 39.984375 
L 37.703125 39.984375 
Q 44.1875 39.984375 47.84375 41.328125 
Q 51.515625 42.671875 53.421875 45.625 
Q 55.328125 48.578125 55.328125 52.046875 
Q 55.328125 57.125 51.640625 60.390625 
Q 47.953125 63.671875 39.984375 63.671875 
L 17.328125 63.671875 
z
" id="ArialMT-52"/>
      <path d="M 42.09375 16.703125 
L 51.171875 15.578125 
Q 49.03125 7.625 43.21875 3.21875 
Q 37.40625 -1.171875 28.375 -1.171875 
Q 17 -1.171875 10.328125 5.828125 
Q 3.65625 12.84375 3.65625 25.484375 
Q 3.65625 38.578125 10.390625 45.796875 
Q 17.140625 53.03125 27.875 53.03125 
Q 38.28125 53.03125 44.875 45.953125 
Q 51.46875 38.875 51.46875 26.03125 
Q 51.46875 25.25 51.421875 23.6875 
L 12.75 23.6875 
Q 13.234375 15.140625 17.578125 10.59375 
Q 21.921875 6.0625 28.421875 6.0625 
Q 33.25 6.0625 36.671875 8.59375 
Q 40.09375 11.140625 42.09375 16.703125 
z
M 13.234375 30.90625 
L 42.1875 30.90625 
Q 41.609375 37.453125 38.875 40.71875 
Q 34.671875 45.796875 27.984375 45.796875 
Q 21.921875 45.796875 17.796875 41.75 
Q 13.671875 37.703125 13.234375 30.90625 
z
" id="ArialMT-65"/>
      <path d="M 3.078125 15.484375 
L 11.765625 16.84375 
Q 12.5 11.625 15.84375 8.84375 
Q 19.1875 6.0625 25.203125 6.0625 
Q 31.25 6.0625 34.171875 8.515625 
Q 37.109375 10.984375 37.109375 14.3125 
Q 37.109375 17.28125 34.515625 19 
Q 32.71875 20.171875 25.53125 21.96875 
Q 15.875 24.421875 12.140625 26.203125 
Q 8.40625 27.984375 6.46875 31.125 
Q 4.546875 34.28125 4.546875 38.09375 
Q 4.546875 41.546875 6.125 44.5 
Q 7.71875 47.46875 10.453125 49.421875 
Q 12.5 50.921875 16.03125 51.96875 
Q 19.578125 53.03125 23.640625 53.03125 
Q 29.734375 53.03125 34.34375 51.265625 
Q 38.96875 49.515625 41.15625 46.5 
Q 43.359375 43.5 44.1875 38.484375 
L 35.59375 37.3125 
Q 35.015625 41.3125 32.203125 43.546875 
Q 29.390625 45.796875 24.265625 45.796875 
Q 18.21875 45.796875 15.625 43.796875 
Q 13.03125 41.796875 13.03125 39.109375 
Q 13.03125 37.40625 14.109375 36.03125 
Q 15.1875 34.625 17.484375 33.6875 
Q 18.796875 33.203125 25.25 31.453125 
Q 34.578125 28.953125 38.25 27.359375 
Q 41.9375 25.78125 44.03125 22.75 
Q 46.140625 19.734375 46.140625 15.234375 
Q 46.140625 10.84375 43.578125 6.953125 
Q 41.015625 3.078125 36.171875 0.953125 
Q 31.34375 -1.171875 25.25 -1.171875 
Q 15.140625 -1.171875 9.84375 3.03125 
Q 4.546875 7.234375 3.078125 15.484375 
z
" id="ArialMT-73"/>
      <path d="M 6.390625 0 
L 6.390625 71.578125 
L 15.1875 71.578125 
L 15.1875 0 
z
" id="ArialMT-6c"/>
      <path d="M 8.203125 0 
L 8.203125 71.578125 
L 56.5 71.578125 
L 56.5 63.140625 
L 17.671875 63.140625 
L 17.671875 40.96875 
L 51.265625 40.96875 
L 51.265625 32.515625 
L 17.671875 32.515625 
L 17.671875 0 
z
" id="ArialMT-46"/>
      <path d="M 40.4375 6.390625 
Q 35.546875 2.25 31.03125 0.53125 
Q 26.515625 -1.171875 21.34375 -1.171875 
Q 12.796875 -1.171875 8.203125 3 
Q 3.609375 7.171875 3.609375 13.671875 
Q 3.609375 17.484375 5.34375 20.625 
Q 7.078125 23.78125 9.890625 25.6875 
Q 12.703125 27.59375 16.21875 28.5625 
Q 18.796875 29.25 24.03125 29.890625 
Q 34.671875 31.15625 39.703125 32.90625 
Q 39.75 34.71875 39.75 35.203125 
Q 39.75 40.578125 37.25 42.78125 
Q 33.890625 45.75 27.25 45.75 
Q 21.046875 45.75 18.09375 43.578125 
Q 15.140625 41.40625 13.71875 35.890625 
L 5.125 37.0625 
Q 6.296875 42.578125 8.984375 45.96875 
Q 11.671875 49.359375 16.75 51.1875 
Q 21.828125 53.03125 28.515625 53.03125 
Q 35.15625 53.03125 39.296875 51.46875 
Q 43.453125 49.90625 45.40625 47.53125 
Q 47.359375 45.171875 48.140625 41.546875 
Q 48.578125 39.3125 48.578125 33.453125 
L 48.578125 21.734375 
Q 48.578125 9.46875 49.140625 6.21875 
Q 49.703125 2.984375 51.375 0 
L 42.1875 0 
Q 40.828125 2.734375 40.4375 6.390625 
z
M 39.703125 26.03125 
Q 34.90625 24.078125 25.34375 22.703125 
Q 19.921875 21.921875 17.671875 20.9375 
Q 15.4375 19.96875 14.203125 18.09375 
Q 12.984375 16.21875 12.984375 13.921875 
Q 12.984375 10.40625 15.640625 8.0625 
Q 18.3125 5.71875 23.4375 5.71875 
Q 28.515625 5.71875 32.46875 7.9375 
Q 36.421875 10.15625 38.28125 14.015625 
Q 39.703125 17 39.703125 22.796875 
z
" id="ArialMT-61"/>
      <path d="M 6.640625 61.46875 
L 6.640625 71.578125 
L 15.4375 71.578125 
L 15.4375 61.46875 
z
M 6.640625 0 
L 6.640625 51.859375 
L 15.4375 51.859375 
L 15.4375 0 
z
" id="ArialMT-69"/>
      <path d="M 6.5 0 
L 6.5 51.859375 
L 14.40625 51.859375 
L 14.40625 44 
Q 17.4375 49.515625 20 51.265625 
Q 22.5625 53.03125 25.640625 53.03125 
Q 30.078125 53.03125 34.671875 50.203125 
L 31.640625 42.046875 
Q 28.421875 43.953125 25.203125 43.953125 
Q 22.3125 43.953125 20.015625 42.21875 
Q 17.71875 40.484375 16.75 37.40625 
Q 15.28125 32.71875 15.28125 27.15625 
L 15.28125 0 
z
" id="ArialMT-72"/>
      <path d="M 7.71875 0 
L 7.71875 71.578125 
L 34.71875 71.578125 
Q 41.84375 71.578125 45.609375 70.90625 
Q 50.875 70.015625 54.4375 67.546875 
Q 58.015625 65.09375 60.1875 60.640625 
Q 62.359375 56.203125 62.359375 50.875 
Q 62.359375 41.75 56.546875 35.421875 
Q 50.734375 29.109375 35.546875 29.109375 
L 17.1875 29.109375 
L 17.1875 0 
z
M 17.1875 37.546875 
L 35.6875 37.546875 
Q 44.875 37.546875 48.734375 40.96875 
Q 52.59375 44.390625 52.59375 50.59375 
Q 52.59375 55.078125 50.3125 58.265625 
Q 48.046875 61.46875 44.34375 62.5 
Q 41.9375 63.140625 35.5 63.140625 
L 17.1875 63.140625 
z
" id="ArialMT-50"/>
      <path d="M 4.5 23 
L 13.421875 23.78125 
Q 14.0625 18.40625 16.375 14.96875 
Q 18.703125 11.53125 23.578125 9.40625 
Q 28.46875 7.28125 34.578125 7.28125 
Q 39.984375 7.28125 44.140625 8.890625 
Q 48.296875 10.5 50.3125 13.296875 
Q 52.34375 16.109375 52.34375 19.4375 
Q 52.34375 22.796875 50.390625 25.3125 
Q 48.4375 27.828125 43.953125 29.546875 
Q 41.0625 30.671875 31.203125 33.03125 
Q 21.34375 35.40625 17.390625 37.5 
Q 12.25 40.1875 9.734375 44.15625 
Q 7.234375 48.140625 7.234375 53.078125 
Q 7.234375 58.5 10.296875 63.203125 
Q 13.375 67.921875 19.28125 70.359375 
Q 25.203125 72.796875 32.421875 72.796875 
Q 40.375 72.796875 46.453125 70.234375 
Q 52.546875 67.671875 55.8125 62.6875 
Q 59.078125 57.71875 59.328125 51.421875 
L 50.25 50.734375 
Q 49.515625 57.515625 45.28125 60.984375 
Q 41.0625 64.453125 32.8125 64.453125 
Q 24.21875 64.453125 20.28125 61.296875 
Q 16.359375 58.15625 16.359375 53.71875 
Q 16.359375 49.859375 19.140625 47.359375 
Q 21.875 44.875 33.421875 42.265625 
Q 44.96875 39.65625 49.265625 37.703125 
Q 55.515625 34.8125 58.484375 30.390625 
Q 61.46875 25.984375 61.46875 20.21875 
Q 61.46875 14.5 58.203125 9.4375 
Q 54.9375 4.390625 48.796875 1.578125 
Q 42.671875 -1.21875 35.015625 -1.21875 
Q 25.296875 -1.21875 18.71875 1.609375 
Q 12.15625 4.4375 8.421875 10.125 
Q 4.6875 15.828125 4.5 23 
z
" id="ArialMT-53"/>
      <path d="M 40.4375 19 
L 49.078125 17.875 
Q 47.65625 8.9375 41.8125 3.875 
Q 35.984375 -1.171875 27.484375 -1.171875 
Q 16.84375 -1.171875 10.375 5.78125 
Q 3.90625 12.75 3.90625 25.734375 
Q 3.90625 34.125 6.6875 40.421875 
Q 9.46875 46.734375 15.15625 49.875 
Q 20.84375 53.03125 27.546875 53.03125 
Q 35.984375 53.03125 41.359375 48.75 
Q 46.734375 44.484375 48.25 36.625 
L 39.703125 35.296875 
Q 38.484375 40.53125 35.375 43.15625 
Q 32.28125 45.796875 27.875 45.796875 
Q 21.234375 45.796875 17.078125 41.03125 
Q 12.9375 36.28125 12.9375 25.984375 
Q 12.9375 15.53125 16.9375 10.796875 
Q 20.953125 6.0625 27.390625 6.0625 
Q 32.5625 6.0625 36.03125 9.234375 
Q 39.5 12.40625 40.4375 19 
z
" id="ArialMT-63"/>
     </defs>
     <g style="fill:#262626;" transform="translate(14.357812 779.14875)rotate(-90)scale(0.1 -0.1)">
      <use xlink:href="#ArialMT-20"/>
      <use x="27.783203" xlink:href="#ArialMT-20"/>
      <use x="55.566406" xlink:href="#ArialMT-20"/>
      <use x="83.349609" xlink:href="#ArialMT-20"/>
      <use x="111.132812" xlink:href="#ArialMT-20"/>
      <use x="138.916016" xlink:href="#ArialMT-20"/>
      <use x="166.699219" xlink:href="#ArialMT-20"/>
      <use x="194.482422" xlink:href="#ArialMT-20"/>
      <use x="222.265625" xlink:href="#ArialMT-20"/>
      <use x="250.048828" xlink:href="#ArialMT-20"/>
      <use x="277.832031" xlink:href="#ArialMT-20"/>
      <use x="305.615234" xlink:href="#ArialMT-20"/>
      <use x="333.398438" xlink:href="#ArialMT-20"/>
      <use x="361.181641" xlink:href="#ArialMT-20"/>
      <use x="388.964844" xlink:href="#ArialMT-20"/>
      <use x="416.748047" xlink:href="#ArialMT-20"/>
      <use x="444.53125" xlink:href="#ArialMT-20"/>
      <use x="472.314453" xlink:href="#ArialMT-20"/>
      <use x="500.097656" xlink:href="#ArialMT-20"/>
      <use x="527.880859" xlink:href="#ArialMT-20"/>
      <use x="555.664062" xlink:href="#ArialMT-20"/>
      <use x="583.447266" xlink:href="#ArialMT-20"/>
      <use x="611.230469" xlink:href="#ArialMT-4e"/>
      <use x="683.447266" xlink:href="#ArialMT-6f"/>
      <use x="739.0625" xlink:href="#ArialMT-20"/>
      <use x="766.845703" xlink:href="#ArialMT-52"/>
      <use x="839.0625" xlink:href="#ArialMT-65"/>
      <use x="894.677734" xlink:href="#ArialMT-73"/>
      <use x="944.677734" xlink:href="#ArialMT-75"/>
      <use x="1000.292969" xlink:href="#ArialMT-6c"/>
      <use x="1022.509766" xlink:href="#ArialMT-74"/>
      <use x="1050.292969" xlink:href="#ArialMT-20"/>
      <use x="1078.076172" xlink:href="#ArialMT-20"/>
      <use x="1105.859375" xlink:href="#ArialMT-20"/>
      <use x="1133.642578" xlink:href="#ArialMT-20"/>
      <use x="1161.425781" xlink:href="#ArialMT-20"/>
      <use x="1189.208984" xlink:href="#ArialMT-20"/>
      <use x="1216.992188" xlink:href="#ArialMT-20"/>
      <use x="1244.775391" xlink:href="#ArialMT-20"/>
      <use x="1272.558594" xlink:href="#ArialMT-20"/>
      <use x="1300.341797" xlink:href="#ArialMT-20"/>
      <use x="1328.125" xlink:href="#ArialMT-20"/>
      <use x="1355.908203" xlink:href="#ArialMT-20"/>
      <use x="1383.691406" xlink:href="#ArialMT-20"/>
      <use x="1411.474609" xlink:href="#ArialMT-20"/>
      <use x="1439.257812" xlink:href="#ArialMT-20"/>
      <use x="1467.041016" xlink:href="#ArialMT-20"/>
      <use x="1494.824219" xlink:href="#ArialMT-20"/>
      <use x="1522.607422" xlink:href="#ArialMT-20"/>
      <use x="1550.390625" xlink:href="#ArialMT-20"/>
      <use x="1578.173828" xlink:href="#ArialMT-20"/>
      <use x="1605.957031" xlink:href="#ArialMT-20"/>
      <use x="1633.740234" xlink:href="#ArialMT-20"/>
      <use x="1661.523438" xlink:href="#ArialMT-20"/>
      <use x="1689.306641" xlink:href="#ArialMT-20"/>
      <use x="1717.089844" xlink:href="#ArialMT-20"/>
      <use x="1744.873047" xlink:href="#ArialMT-20"/>
      <use x="1772.65625" xlink:href="#ArialMT-20"/>
      <use x="1800.439453" xlink:href="#ArialMT-20"/>
      <use x="1828.222656" xlink:href="#ArialMT-20"/>
      <use x="1856.005859" xlink:href="#ArialMT-20"/>
      <use x="1883.789062" xlink:href="#ArialMT-20"/>
      <use x="1911.572266" xlink:href="#ArialMT-20"/>
      <use x="1939.355469" xlink:href="#ArialMT-20"/>
      <use x="1967.138672" xlink:href="#ArialMT-20"/>
      <use x="1994.921875" xlink:href="#ArialMT-20"/>
      <use x="2022.705078" xlink:href="#ArialMT-20"/>
      <use x="2050.488281" xlink:href="#ArialMT-20"/>
      <use x="2078.271484" xlink:href="#ArialMT-20"/>
      <use x="2106.054688" xlink:href="#ArialMT-20"/>
      <use x="2133.837891" xlink:href="#ArialMT-20"/>
      <use x="2161.621094" xlink:href="#ArialMT-20"/>
      <use x="2189.404297" xlink:href="#ArialMT-20"/>
      <use x="2217.1875" xlink:href="#ArialMT-20"/>
      <use x="2244.970703" xlink:href="#ArialMT-20"/>
      <use x="2272.753906" xlink:href="#ArialMT-20"/>
      <use x="2300.537109" xlink:href="#ArialMT-20"/>
      <use x="2328.320312" xlink:href="#ArialMT-20"/>
      <use x="2356.103516" xlink:href="#ArialMT-20"/>
      <use x="2383.886719" xlink:href="#ArialMT-20"/>
      <use x="2411.669922" xlink:href="#ArialMT-20"/>
      <use x="2439.453125" xlink:href="#ArialMT-20"/>
      <use x="2467.236328" xlink:href="#ArialMT-20"/>
      <use x="2495.019531" xlink:href="#ArialMT-20"/>
      <use x="2522.802734" xlink:href="#ArialMT-20"/>
      <use x="2550.585938" xlink:href="#ArialMT-20"/>
      <use x="2578.369141" xlink:href="#ArialMT-20"/>
      <use x="2606.152344" xlink:href="#ArialMT-20"/>
      <use x="2633.935547" xlink:href="#ArialMT-20"/>
      <use x="2661.71875" xlink:href="#ArialMT-20"/>
      <use x="2689.501953" xlink:href="#ArialMT-20"/>
      <use x="2717.285156" xlink:href="#ArialMT-46"/>
      <use x="2778.369141" xlink:href="#ArialMT-61"/>
      <use x="2833.984375" xlink:href="#ArialMT-69"/>
      <use x="2856.201172" xlink:href="#ArialMT-6c"/>
      <use x="2878.417969" xlink:href="#ArialMT-75"/>
      <use x="2934.033203" xlink:href="#ArialMT-72"/>
      <use x="2967.333984" xlink:href="#ArialMT-65"/>
      <use x="3022.949219" xlink:href="#ArialMT-20"/>
      <use x="3050.732422" xlink:href="#ArialMT-20"/>
      <use x="3078.515625" xlink:href="#ArialMT-20"/>
      <use x="3106.298828" xlink:href="#ArialMT-20"/>
      <use x="3134.082031" xlink:href="#ArialMT-20"/>
      <use x="3161.865234" xlink:href="#ArialMT-20"/>
      <use x="3189.648438" xlink:href="#ArialMT-20"/>
      <use x="3217.431641" xlink:href="#ArialMT-20"/>
      <use x="3245.214844" xlink:href="#ArialMT-20"/>
      <use x="3272.998047" xlink:href="#ArialMT-20"/>
      <use x="3300.78125" xlink:href="#ArialMT-20"/>
      <use x="3328.564453" xlink:href="#ArialMT-20"/>
      <use x="3356.347656" xlink:href="#ArialMT-20"/>
      <use x="3384.130859" xlink:href="#ArialMT-20"/>
      <use x="3411.914062" xlink:href="#ArialMT-20"/>
      <use x="3439.697266" xlink:href="#ArialMT-20"/>
      <use x="3467.480469" xlink:href="#ArialMT-20"/>
      <use x="3495.263672" xlink:href="#ArialMT-20"/>
      <use x="3523.046875" xlink:href="#ArialMT-20"/>
      <use x="3550.830078" xlink:href="#ArialMT-20"/>
      <use x="3578.613281" xlink:href="#ArialMT-20"/>
      <use x="3606.396484" xlink:href="#ArialMT-20"/>
      <use x="3634.179688" xlink:href="#ArialMT-20"/>
      <use x="3661.962891" xlink:href="#ArialMT-20"/>
      <use x="3689.746094" xlink:href="#ArialMT-20"/>
      <use x="3717.529297" xlink:href="#ArialMT-20"/>
      <use x="3745.3125" xlink:href="#ArialMT-20"/>
      <use x="3773.095703" xlink:href="#ArialMT-20"/>
      <use x="3800.878906" xlink:href="#ArialMT-20"/>
      <use x="3828.662109" xlink:href="#ArialMT-20"/>
      <use x="3856.445312" xlink:href="#ArialMT-20"/>
      <use x="3884.228516" xlink:href="#ArialMT-20"/>
      <use x="3912.011719" xlink:href="#ArialMT-20"/>
      <use x="3939.794922" xlink:href="#ArialMT-20"/>
      <use x="3967.578125" xlink:href="#ArialMT-20"/>
      <use x="3995.361328" xlink:href="#ArialMT-20"/>
      <use x="4023.144531" xlink:href="#ArialMT-20"/>
      <use x="4050.927734" xlink:href="#ArialMT-20"/>
      <use x="4078.710938" xlink:href="#ArialMT-20"/>
      <use x="4106.494141" xlink:href="#ArialMT-20"/>
      <use x="4134.277344" xlink:href="#ArialMT-20"/>
      <use x="4162.060547" xlink:href="#ArialMT-20"/>
      <use x="4189.84375" xlink:href="#ArialMT-20"/>
      <use x="4217.626953" xlink:href="#ArialMT-20"/>
      <use x="4245.410156" xlink:href="#ArialMT-20"/>
      <use x="4273.193359" xlink:href="#ArialMT-20"/>
      <use x="4300.976562" xlink:href="#ArialMT-20"/>
      <use x="4328.759766" xlink:href="#ArialMT-20"/>
      <use x="4356.542969" xlink:href="#ArialMT-20"/>
      <use x="4384.326172" xlink:href="#ArialMT-20"/>
      <use x="4412.109375" xlink:href="#ArialMT-20"/>
      <use x="4439.892578" xlink:href="#ArialMT-20"/>
      <use x="4467.675781" xlink:href="#ArialMT-20"/>
      <use x="4495.458984" xlink:href="#ArialMT-20"/>
      <use x="4523.242188" xlink:href="#ArialMT-20"/>
      <use x="4551.025391" xlink:href="#ArialMT-20"/>
      <use x="4578.808594" xlink:href="#ArialMT-20"/>
      <use x="4606.591797" xlink:href="#ArialMT-20"/>
      <use x="4634.375" xlink:href="#ArialMT-20"/>
      <use x="4662.158203" xlink:href="#ArialMT-20"/>
      <use x="4689.941406" xlink:href="#ArialMT-20"/>
      <use x="4717.724609" xlink:href="#ArialMT-20"/>
      <use x="4745.507812" xlink:href="#ArialMT-20"/>
      <use x="4773.291016" xlink:href="#ArialMT-20"/>
      <use x="4801.074219" xlink:href="#ArialMT-20"/>
      <use x="4828.857422" xlink:href="#ArialMT-20"/>
      <use x="4856.640625" xlink:href="#ArialMT-20"/>
      <use x="4884.423828" xlink:href="#ArialMT-20"/>
      <use x="4912.207031" xlink:href="#ArialMT-20"/>
      <use x="4939.990234" xlink:href="#ArialMT-20"/>
      <use x="4967.773438" xlink:href="#ArialMT-20"/>
      <use x="4995.556641" xlink:href="#ArialMT-20"/>
      <use x="5023.339844" xlink:href="#ArialMT-50"/>
      <use x="5090.039062" xlink:href="#ArialMT-61"/>
      <use x="5145.654297" xlink:href="#ArialMT-72"/>
      <use x="5178.955078" xlink:href="#ArialMT-74"/>
      <use x="5206.738281" xlink:href="#ArialMT-69"/>
      <use x="5228.955078" xlink:href="#ArialMT-61"/>
      <use x="5284.570312" xlink:href="#ArialMT-6c"/>
      <use x="5306.787109" xlink:href="#ArialMT-20"/>
      <use x="5334.570312" xlink:href="#ArialMT-53"/>
      <use x="5401.269531" xlink:href="#ArialMT-75"/>
      <use x="5456.884766" xlink:href="#ArialMT-63"/>
      <use x="5506.884766" xlink:href="#ArialMT-63"/>
      <use x="5556.884766" xlink:href="#ArialMT-65"/>
      <use x="5612.5" xlink:href="#ArialMT-73"/>
      <use x="5662.5" xlink:href="#ArialMT-73"/>
      <use x="5712.5" xlink:href="#ArialMT-20"/>
      <use x="5740.283203" xlink:href="#ArialMT-20"/>
      <use x="5768.066406" xlink:href="#ArialMT-20"/>
      <use x="5795.849609" xlink:href="#ArialMT-20"/>
      <use x="5823.632812" xlink:href="#ArialMT-20"/>
      <use x="5851.416016" xlink:href="#ArialMT-20"/>
      <use x="5879.199219" xlink:href="#ArialMT-20"/>
      <use x="5906.982422" xlink:href="#ArialMT-20"/>
      <use x="5934.765625" xlink:href="#ArialMT-20"/>
      <use x="5962.548828" xlink:href="#ArialMT-20"/>
      <use x="5990.332031" xlink:href="#ArialMT-20"/>
      <use x="6018.115234" xlink:href="#ArialMT-20"/>
      <use x="6045.898438" xlink:href="#ArialMT-20"/>
      <use x="6073.681641" xlink:href="#ArialMT-20"/>
      <use x="6101.464844" xlink:href="#ArialMT-20"/>
      <use x="6129.248047" xlink:href="#ArialMT-20"/>
      <use x="6157.03125" xlink:href="#ArialMT-20"/>
      <use x="6184.814453" xlink:href="#ArialMT-20"/>
      <use x="6212.597656" xlink:href="#ArialMT-20"/>
      <use x="6240.380859" xlink:href="#ArialMT-20"/>
      <use x="6268.164062" xlink:href="#ArialMT-20"/>
      <use x="6295.947266" xlink:href="#ArialMT-20"/>
      <use x="6323.730469" xlink:href="#ArialMT-20"/>
      <use x="6351.513672" xlink:href="#ArialMT-20"/>
      <use x="6379.296875" xlink:href="#ArialMT-20"/>
      <use x="6407.080078" xlink:href="#ArialMT-20"/>
      <use x="6434.863281" xlink:href="#ArialMT-20"/>
      <use x="6462.646484" xlink:href="#ArialMT-20"/>
      <use x="6490.429688" xlink:href="#ArialMT-20"/>
      <use x="6518.212891" xlink:href="#ArialMT-20"/>
      <use x="6545.996094" xlink:href="#ArialMT-20"/>
      <use x="6573.779297" xlink:href="#ArialMT-20"/>
      <use x="6601.5625" xlink:href="#ArialMT-20"/>
      <use x="6629.345703" xlink:href="#ArialMT-20"/>
      <use x="6657.128906" xlink:href="#ArialMT-20"/>
      <use x="6684.912109" xlink:href="#ArialMT-20"/>
      <use x="6712.695312" xlink:href="#ArialMT-20"/>
      <use x="6740.478516" xlink:href="#ArialMT-20"/>
      <use x="6768.261719" xlink:href="#ArialMT-20"/>
      <use x="6796.044922" xlink:href="#ArialMT-20"/>
      <use x="6823.828125" xlink:href="#ArialMT-53"/>
      <use x="6890.527344" xlink:href="#ArialMT-75"/>
      <use x="6946.142578" xlink:href="#ArialMT-63"/>
      <use x="6996.142578" xlink:href="#ArialMT-63"/>
      <use x="7046.142578" xlink:href="#ArialMT-65"/>
      <use x="7101.757812" xlink:href="#ArialMT-73"/>
      <use x="7151.757812" xlink:href="#ArialMT-73"/>
     </g>
    </g>
   </g>
   <g id="patch_3">
    <path clip-path="url(#p4afaaa9a1b)" d="M 34.967188 38.110817 
L 34.967188 38.110817 
L 34.967188 43.796971 
L 34.967188 43.796971 
z
" style="fill:#0485d1;fill-opacity:0.74902;"/>
   </g>
   <g id="patch_4">
    <path clip-path="url(#p4afaaa9a1b)" d="M 34.967188 66.541587 
L 57.343127 66.541587 
L 57.343127 72.22774 
L 34.967188 72.22774 
z
" style="fill:#0485d1;fill-opacity:0.74902;"/>
   </g>
   <g id="patch_5">
    <path clip-path="url(#p4afaaa9a1b)" d="M 34.967188 94.972356 
L 34.967188 94.972356 
L 34.967188 100.65851 
L 34.967188 100.65851 
z
" style="fill:#0485d1;fill-opacity:0.74902;"/>
   </g>
   <g id="patch_6">
    <path clip-path="url(#p4afaaa9a1b)" d="M 34.967188 123.403125 
L 102.095007 123.403125 
L 102.095007 129.089279 
L 34.967188 129.089279 
z
" style="fill:#0485d1;fill-opacity:0.74902;"/>
   </g>
   <g id="patch_7">
    <path clip-path="url(#p4afaaa9a1b)" d="M 34.967188 151.833894 
L 102.095007 151.833894 
L 102.095007 157.520048 
L 34.967188 157.520048 
z
" style="fill:#0485d1;fill-opacity:0.74902;"/>
   </g>
   <g id="patch_8">
    <path clip-path="url(#p4afaaa9a1b)" d="M 34.967188 180.264663 
L 57.343127 180.264663 
L 57.343127 185.950817 
L 34.967188 185.950817 
z
" style="fill:#0485d1;fill-opacity:0.74902;"/>
   </g>
   <g id="patch_9">
    <path clip-path="url(#p4afaaa9a1b)" d="M 34.967188 208.695433 
L 169.222827 208.695433 
L 169.222827 214.381587 
L 34.967188 214.381587 
z
" style="fill:#0485d1;fill-opacity:0.74902;"/>
   </g>
   <g id="patch_10">
    <path clip-path="url(#p4afaaa9a1b)" d="M 34.967188 237.126202 
L 102.095007 237.126202 
L 102.095007 242.812356 
L 34.967188 242.812356 
z
" style="fill:#0485d1;fill-opacity:0.74902;"/>
   </g>
   <g id="patch_11">
    <path clip-path="url(#p4afaaa9a1b)" d="M 34.967188 265.556971 
L 102.095007 265.556971 
L 102.095007 271.243125 
L 34.967188 271.243125 
z
" style="fill:#0485d1;fill-opacity:0.74902;"/>
   </g>
   <g id="patch_12">
    <path clip-path="url(#p4afaaa9a1b)" d="M 34.967188 293.98774 
L 169.222827 293.98774 
L 169.222827 299.673894 
L 34.967188 299.673894 
z
" style="fill:#0485d1;fill-opacity:0.74902;"/>
   </g>
   <g id="patch_13">
    <path clip-path="url(#p4afaaa9a1b)" d="M 34.967188 322.41851 
L 79.719067 322.41851 
L 79.719067 328.104663 
L 34.967188 328.104663 
z
" style="fill:#0485d1;fill-opacity:0.74902;"/>
   </g>
   <g id="patch_14">
    <path clip-path="url(#p4afaaa9a1b)" d="M 34.967188 350.849279 
L 34.967188 350.849279 
L 34.967188 356.535433 
L 34.967188 356.535433 
z
" style="fill:#0485d1;fill-opacity:0.74902;"/>
   </g>
   <g id="patch_15">
    <path clip-path="url(#p4afaaa9a1b)" d="M 34.967188 379.280048 
L 79.719067 379.280048 
L 79.719067 384.966202 
L 34.967188 384.966202 
z
" style="fill:#0485d1;fill-opacity:0.74902;"/>
   </g>
   <g id="patch_16">
    <path clip-path="url(#p4afaaa9a1b)" d="M 34.967188 407.710817 
L 57.343127 407.710817 
L 57.343127 413.396971 
L 34.967188 413.396971 
z
" style="fill:#0485d1;fill-opacity:0.74902;"/>
   </g>
   <g id="patch_17">
    <path clip-path="url(#p4afaaa9a1b)" d="M 34.967188 436.141587 
L 124.470947 436.141587 
L 124.470947 441.82774 
L 34.967188 441.82774 
z
" style="fill:#0485d1;fill-opacity:0.74902;"/>
   </g>
   <g id="patch_18">
    <path clip-path="url(#p4afaaa9a1b)" d="M 34.967188 464.572356 
L 146.846887 464.572356 
L 146.846887 470.25851 
L 34.967188 470.25851 
z
" style="fill:#0485d1;fill-opacity:0.74902;"/>
   </g>
   <g id="patch_19">
    <path clip-path="url(#p4afaaa9a1b)" d="M 34.967188 493.003125 
L 57.343127 493.003125 
L 57.343127 498.689279 
L 34.967188 498.689279 
z
" style="fill:#0485d1;fill-opacity:0.74902;"/>
   </g>
   <g id="patch_20">
    <path clip-path="url(#p4afaaa9a1b)" d="M 34.967188 521.433894 
L 124.470947 521.433894 
L 124.470947 527.120048 
L 34.967188 527.120048 
z
" style="fill:#0485d1;fill-opacity:0.74902;"/>
   </g>
   <g id="patch_21">
    <path clip-path="url(#p4afaaa9a1b)" d="M 34.967188 549.864663 
L 146.846887 549.864663 
L 146.846887 555.550817 
L 34.967188 555.550817 
z
" style="fill:#0485d1;fill-opacity:0.74902;"/>
   </g>
   <g id="patch_22">
    <path clip-path="url(#p4afaaa9a1b)" d="M 34.967188 578.295433 
L 79.719067 578.295433 
L 79.719067 583.981587 
L 34.967188 583.981587 
z
" style="fill:#0485d1;fill-opacity:0.74902;"/>
   </g>
   <g id="patch_23">
    <path clip-path="url(#p4afaaa9a1b)" d="M 34.967188 606.726202 
L 34.967188 606.726202 
L 34.967188 612.412356 
L 34.967188 612.412356 
z
" style="fill:#0485d1;fill-opacity:0.74902;"/>
   </g>
   <g id="patch_24">
    <path clip-path="url(#p4afaaa9a1b)" d="M 34.967188 635.156971 
L 102.095007 635.156971 
L 102.095007 640.843125 
L 34.967188 640.843125 
z
" style="fill:#0485d1;fill-opacity:0.74902;"/>
   </g>
   <g id="patch_25">
    <path clip-path="url(#p4afaaa9a1b)" d="M 34.967188 663.58774 
L 57.343127 663.58774 
L 57.343127 669.273894 
L 34.967188 669.273894 
z
" style="fill:#0485d1;fill-opacity:0.74902;"/>
   </g>
   <g id="patch_26">
    <path clip-path="url(#p4afaaa9a1b)" d="M 34.967188 692.01851 
L 124.470947 692.01851 
L 124.470947 697.704663 
L 34.967188 697.704663 
z
" style="fill:#0485d1;fill-opacity:0.74902;"/>
   </g>
   <g id="patch_27">
    <path clip-path="url(#p4afaaa9a1b)" d="M 34.967188 720.449279 
L 169.222827 720.449279 
L 169.222827 726.135433 
L 34.967188 726.135433 
z
" style="fill:#0485d1;fill-opacity:0.74902;"/>
   </g>
   <g id="patch_28">
    <path clip-path="url(#p4afaaa9a1b)" d="M 34.967188 748.880048 
L 102.095007 748.880048 
L 102.095007 754.566202 
L 34.967188 754.566202 
z
" style="fill:#0485d1;fill-opacity:0.74902;"/>
   </g>
   <g id="patch_29">
    <path clip-path="url(#p4afaaa9a1b)" d="M 34.967188 777.310817 
L 34.967188 777.310817 
L 34.967188 782.996971 
L 34.967188 782.996971 
z
" style="fill:#0485d1;fill-opacity:0.74902;"/>
   </g>
   <g id="patch_30">
    <path clip-path="url(#p4afaaa9a1b)" d="M 34.967188 43.796971 
L 34.967188 43.796971 
L 34.967188 49.483125 
L 34.967188 49.483125 
z
" style="fill:#75bbfd;fill-opacity:0.74902;"/>
   </g>
   <g id="patch_31">
    <path clip-path="url(#p4afaaa9a1b)" d="M 34.967188 72.22774 
L 57.343127 72.22774 
L 57.343127 77.913894 
L 34.967188 77.913894 
z
" style="fill:#75bbfd;fill-opacity:0.74902;"/>
   </g>
   <g id="patch_32">
    <path clip-path="url(#p4afaaa9a1b)" d="M 34.967188 100.65851 
L 34.967188 100.65851 
L 34.967188 106.344663 
L 34.967188 106.344663 
z
" style="fill:#75bbfd;fill-opacity:0.74902;"/>
   </g>
   <g id="patch_33">
    <path clip-path="url(#p4afaaa9a1b)" d="M 34.967188 129.089279 
L 102.095007 129.089279 
L 102.095007 134.775433 
L 34.967188 134.775433 
z
" style="fill:#75bbfd;fill-opacity:0.74902;"/>
   </g>
   <g id="patch_34">
    <path clip-path="url(#p4afaaa9a1b)" d="M 34.967188 157.520048 
L 79.719067 157.520048 
L 79.719067 163.206202 
L 34.967188 163.206202 
z
" style="fill:#75bbfd;fill-opacity:0.74902;"/>
   </g>
   <g id="patch_35">
    <path clip-path="url(#p4afaaa9a1b)" d="M 34.967188 185.950817 
L 57.343127 185.950817 
L 57.343127 191.636971 
L 34.967188 191.636971 
z
" style="fill:#75bbfd;fill-opacity:0.74902;"/>
   </g>
   <g id="patch_36">
    <path clip-path="url(#p4afaaa9a1b)" d="M 34.967188 214.381587 
L 102.095007 214.381587 
L 102.095007 220.06774 
L 34.967188 220.06774 
z
" style="fill:#75bbfd;fill-opacity:0.74902;"/>
   </g>
   <g id="patch_37">
    <path clip-path="url(#p4afaaa9a1b)" d="M 34.967188 242.812356 
L 79.719067 242.812356 
L 79.719067 248.49851 
L 34.967188 248.49851 
z
" style="fill:#75bbfd;fill-opacity:0.74902;"/>
   </g>
   <g id="patch_38">
    <path clip-path="url(#p4afaaa9a1b)" d="M 34.967188 271.243125 
L 102.095007 271.243125 
L 102.095007 276.929279 
L 34.967188 276.929279 
z
" style="fill:#75bbfd;fill-opacity:0.74902;"/>
   </g>
   <g id="patch_39">
    <path clip-path="url(#p4afaaa9a1b)" d="M 34.967188 299.673894 
L 102.095007 299.673894 
L 102.095007 305.360048 
L 34.967188 305.360048 
z
" style="fill:#75bbfd;fill-opacity:0.74902;"/>
   </g>
   <g id="patch_40">
    <path clip-path="url(#p4afaaa9a1b)" d="M 34.967188 328.104663 
L 146.846887 328.104663 
L 146.846887 333.790817 
L 34.967188 333.790817 
z
" style="fill:#75bbfd;fill-opacity:0.74902;"/>
   </g>
   <g id="patch_41">
    <path clip-path="url(#p4afaaa9a1b)" d="M 34.967188 356.535433 
L 34.967188 356.535433 
L 34.967188 362.221587 
L 34.967188 362.221587 
z
" style="fill:#75bbfd;fill-opacity:0.74902;"/>
   </g>
   <g id="patch_42">
    <path clip-path="url(#p4afaaa9a1b)" d="M 34.967188 384.966202 
L 102.095007 384.966202 
L 102.095007 390.652356 
L 34.967188 390.652356 
z
" style="fill:#75bbfd;fill-opacity:0.74902;"/>
   </g>
   <g id="patch_43">
    <path clip-path="url(#p4afaaa9a1b)" d="M 34.967188 413.396971 
L 34.967188 413.396971 
L 34.967188 419.083125 
L 34.967188 419.083125 
z
" style="fill:#75bbfd;fill-opacity:0.74902;"/>
   </g>
   <g id="patch_44">
    <path clip-path="url(#p4afaaa9a1b)" d="M 34.967188 441.82774 
L 79.719067 441.82774 
L 79.719067 447.513894 
L 34.967188 447.513894 
z
" style="fill:#75bbfd;fill-opacity:0.74902;"/>
   </g>
   <g id="patch_45">
    <path clip-path="url(#p4afaaa9a1b)" d="M 34.967188 470.25851 
L 57.343127 470.25851 
L 57.343127 475.944663 
L 34.967188 475.944663 
z
" style="fill:#75bbfd;fill-opacity:0.74902;"/>
   </g>
   <g id="patch_46">
    <path clip-path="url(#p4afaaa9a1b)" d="M 34.967188 498.689279 
L 102.095007 498.689279 
L 102.095007 504.375433 
L 34.967188 504.375433 
z
" style="fill:#75bbfd;fill-opacity:0.74902;"/>
   </g>
   <g id="patch_47">
    <path clip-path="url(#p4afaaa9a1b)" d="M 34.967188 527.120048 
L 169.222827 527.120048 
L 169.222827 532.806202 
L 34.967188 532.806202 
z
" style="fill:#75bbfd;fill-opacity:0.74902;"/>
   </g>
   <g id="patch_48">
    <path clip-path="url(#p4afaaa9a1b)" d="M 34.967188 555.550817 
L 191.598766 555.550817 
L 191.598766 561.236971 
L 34.967188 561.236971 
z
" style="fill:#75bbfd;fill-opacity:0.74902;"/>
   </g>
   <g id="patch_49">
    <path clip-path="url(#p4afaaa9a1b)" d="M 34.967188 583.981587 
L 102.095007 583.981587 
L 102.095007 589.66774 
L 34.967188 589.66774 
z
" style="fill:#75bbfd;fill-opacity:0.74902;"/>
   </g>
   <g id="patch_50">
    <path clip-path="url(#p4afaaa9a1b)" d="M 34.967188 612.412356 
L 34.967188 612.412356 
L 34.967188 618.09851 
L 34.967188 618.09851 
z
" style="fill:#75bbfd;fill-opacity:0.74902;"/>
   </g>
   <g id="patch_51">
    <path clip-path="url(#p4afaaa9a1b)" d="M 34.967188 640.843125 
L 79.719067 640.843125 
L 79.719067 646.529279 
L 34.967188 646.529279 
z
" style="fill:#75bbfd;fill-opacity:0.74902;"/>
   </g>
   <g id="patch_52">
    <path clip-path="url(#p4afaaa9a1b)" d="M 34.967188 669.273894 
L 57.343127 669.273894 
L 57.343127 674.960048 
L 34.967188 674.960048 
z
" style="fill:#75bbfd;fill-opacity:0.74902;"/>
   </g>
   <g id="patch_53">
    <path clip-path="url(#p4afaaa9a1b)" d="M 34.967188 697.704663 
L 34.967188 697.704663 
L 34.967188 703.390817 
L 34.967188 703.390817 
z
" style="fill:#75bbfd;fill-opacity:0.74902;"/>
   </g>
   <g id="patch_54">
    <path clip-path="url(#p4afaaa9a1b)" d="M 34.967188 726.135433 
L 124.470947 726.135433 
L 124.470947 731.821587 
L 34.967188 731.821587 
z
" style="fill:#75bbfd;fill-opacity:0.74902;"/>
   </g>
   <g id="patch_55">
    <path clip-path="url(#p4afaaa9a1b)" d="M 34.967188 754.566202 
L 34.967188 754.566202 
L 34.967188 760.252356 
L 34.967188 760.252356 
z
" style="fill:#75bbfd;fill-opacity:0.74902;"/>
   </g>
   <g id="patch_56">
    <path clip-path="url(#p4afaaa9a1b)" d="M 34.967188 782.996971 
L 34.967188 782.996971 
L 34.967188 788.683125 
L 34.967188 788.683125 
z
" style="fill:#75bbfd;fill-opacity:0.74902;"/>
   </g>
   <g id="patch_57">
    <path clip-path="url(#p4afaaa9a1b)" d="M 34.967188 49.483125 
L 34.967188 49.483125 
L 34.967188 55.169279 
L 34.967188 55.169279 
z
" style="fill:#00ffff;fill-opacity:0.74902;"/>
   </g>
   <g id="patch_58">
    <path clip-path="url(#p4afaaa9a1b)" d="M 34.967188 77.913894 
L 34.967188 77.913894 
L 34.967188 83.600048 
L 34.967188 83.600048 
z
" style="fill:#00ffff;fill-opacity:0.74902;"/>
   </g>
   <g id="patch_59">
    <path clip-path="url(#p4afaaa9a1b)" d="M 34.967188 106.344663 
L 34.967188 106.344663 
L 34.967188 112.030817 
L 34.967188 112.030817 
z
" style="fill:#00ffff;fill-opacity:0.74902;"/>
   </g>
   <g id="patch_60">
    <path clip-path="url(#p4afaaa9a1b)" d="M 34.967188 134.775433 
L 124.470947 134.775433 
L 124.470947 140.461587 
L 34.967188 140.461587 
z
" style="fill:#00ffff;fill-opacity:0.74902;"/>
   </g>
   <g id="patch_61">
    <path clip-path="url(#p4afaaa9a1b)" d="M 34.967188 163.206202 
L 79.719067 163.206202 
L 79.719067 168.892356 
L 34.967188 168.892356 
z
" style="fill:#00ffff;fill-opacity:0.74902;"/>
   </g>
   <g id="patch_62">
    <path clip-path="url(#p4afaaa9a1b)" d="M 34.967188 191.636971 
L 102.095007 191.636971 
L 102.095007 197.323125 
L 34.967188 197.323125 
z
" style="fill:#00ffff;fill-opacity:0.74902;"/>
   </g>
   <g id="patch_63">
    <path clip-path="url(#p4afaaa9a1b)" d="M 34.967188 220.06774 
L 124.470947 220.06774 
L 124.470947 225.753894 
L 34.967188 225.753894 
z
" style="fill:#00ffff;fill-opacity:0.74902;"/>
   </g>
   <g id="patch_64">
    <path clip-path="url(#p4afaaa9a1b)" d="M 34.967188 248.49851 
L 102.095007 248.49851 
L 102.095007 254.184663 
L 34.967188 254.184663 
z
" style="fill:#00ffff;fill-opacity:0.74902;"/>
   </g>
   <g id="patch_65">
    <path clip-path="url(#p4afaaa9a1b)" d="M 34.967188 276.929279 
L 124.470947 276.929279 
L 124.470947 282.615433 
L 34.967188 282.615433 
z
" style="fill:#00ffff;fill-opacity:0.74902;"/>
   </g>
   <g id="patch_66">
    <path clip-path="url(#p4afaaa9a1b)" d="M 34.967188 305.360048 
L 146.846887 305.360048 
L 146.846887 311.046202 
L 34.967188 311.046202 
z
" style="fill:#00ffff;fill-opacity:0.74902;"/>
   </g>
   <g id="patch_67">
    <path clip-path="url(#p4afaaa9a1b)" d="M 34.967188 333.790817 
L 79.719067 333.790817 
L 79.719067 339.476971 
L 34.967188 339.476971 
z
" style="fill:#00ffff;fill-opacity:0.74902;"/>
   </g>
   <g id="patch_68">
    <path clip-path="url(#p4afaaa9a1b)" d="M 34.967188 362.221587 
L 34.967188 362.221587 
L 34.967188 367.90774 
L 34.967188 367.90774 
z
" style="fill:#00ffff;fill-opacity:0.74902;"/>
   </g>
   <g id="patch_69">
    <path clip-path="url(#p4afaaa9a1b)" d="M 34.967188 390.652356 
L 169.222827 390.652356 
L 169.222827 396.33851 
L 34.967188 396.33851 
z
" style="fill:#00ffff;fill-opacity:0.74902;"/>
   </g>
   <g id="patch_70">
    <path clip-path="url(#p4afaaa9a1b)" d="M 34.967188 419.083125 
L 57.343127 419.083125 
L 57.343127 424.769279 
L 34.967188 424.769279 
z
" style="fill:#00ffff;fill-opacity:0.74902;"/>
   </g>
   <g id="patch_71">
    <path clip-path="url(#p4afaaa9a1b)" d="M 34.967188 447.513894 
L 124.470947 447.513894 
L 124.470947 453.200048 
L 34.967188 453.200048 
z
" style="fill:#00ffff;fill-opacity:0.74902;"/>
   </g>
   <g id="patch_72">
    <path clip-path="url(#p4afaaa9a1b)" d="M 34.967188 475.944663 
L 124.470947 475.944663 
L 124.470947 481.630817 
L 34.967188 481.630817 
z
" style="fill:#00ffff;fill-opacity:0.74902;"/>
   </g>
   <g id="patch_73">
    <path clip-path="url(#p4afaaa9a1b)" d="M 34.967188 504.375433 
L 57.343127 504.375433 
L 57.343127 510.061587 
L 34.967188 510.061587 
z
" style="fill:#00ffff;fill-opacity:0.74902;"/>
   </g>
   <g id="patch_74">
    <path clip-path="url(#p4afaaa9a1b)" d="M 34.967188 532.806202 
L 124.470947 532.806202 
L 124.470947 538.492356 
L 34.967188 538.492356 
z
" style="fill:#00ffff;fill-opacity:0.74902;"/>
   </g>
   <g id="patch_75">
    <path clip-path="url(#p4afaaa9a1b)" d="M 34.967188 561.236971 
L 191.598766 561.236971 
L 191.598766 566.923125 
L 34.967188 566.923125 
z
" style="fill:#00ffff;fill-opacity:0.74902;"/>
   </g>
   <g id="patch_76">
    <path clip-path="url(#p4afaaa9a1b)" d="M 34.967188 589.66774 
L 79.719067 589.66774 
L 79.719067 595.353894 
L 34.967188 595.353894 
z
" style="fill:#00ffff;fill-opacity:0.74902;"/>
   </g>
   <g id="patch_77">
    <path clip-path="url(#p4afaaa9a1b)" d="M 34.967188 618.09851 
L 34.967188 618.09851 
L 34.967188 623.784663 
L 34.967188 623.784663 
z
" style="fill:#00ffff;fill-opacity:0.74902;"/>
   </g>
   <g id="patch_78">
    <path clip-path="url(#p4afaaa9a1b)" d="M 34.967188 646.529279 
L 34.967188 646.529279 
L 34.967188 652.215433 
L 34.967188 652.215433 
z
" style="fill:#00ffff;fill-opacity:0.74902;"/>
   </g>
   <g id="patch_79">
    <path clip-path="url(#p4afaaa9a1b)" d="M 34.967188 674.960048 
L 34.967188 674.960048 
L 34.967188 680.646202 
L 34.967188 680.646202 
z
" style="fill:#00ffff;fill-opacity:0.74902;"/>
   </g>
   <g id="patch_80">
    <path clip-path="url(#p4afaaa9a1b)" d="M 34.967188 703.390817 
L 34.967188 703.390817 
L 34.967188 709.076971 
L 34.967188 709.076971 
z
" style="fill:#00ffff;fill-opacity:0.74902;"/>
   </g>
   <g id="patch_81">
    <path clip-path="url(#p4afaaa9a1b)" d="M 34.967188 731.821587 
L 34.967188 731.821587 
L 34.967188 737.50774 
L 34.967188 737.50774 
z
" style="fill:#00ffff;fill-opacity:0.74902;"/>
   </g>
   <g id="patch_82">
    <path clip-path="url(#p4afaaa9a1b)" d="M 34.967188 760.252356 
L 34.967188 760.252356 
L 34.967188 765.93851 
L 34.967188 765.93851 
z
" style="fill:#00ffff;fill-opacity:0.74902;"/>
   </g>
   <g id="patch_83">
    <path clip-path="url(#p4afaaa9a1b)" d="M 34.967188 788.683125 
L 34.967188 788.683125 
L 34.967188 794.369279 
L 34.967188 794.369279 
z
" style="fill:#00ffff;fill-opacity:0.74902;"/>
   </g>
   <g id="patch_84">
    <path clip-path="url(#p4afaaa9a1b)" d="M 34.967188 55.169279 
L 34.967188 55.169279 
L 34.967188 60.855433 
L 34.967188 60.855433 
z
" style="fill:#04d8b2;fill-opacity:0.74902;"/>
   </g>
   <g id="patch_85">
    <path clip-path="url(#p4afaaa9a1b)" d="M 34.967188 83.600048 
L 79.719067 83.600048 
L 79.719067 89.286202 
L 34.967188 89.286202 
z
" style="fill:#04d8b2;fill-opacity:0.74902;"/>
   </g>
   <g id="patch_86">
    <path clip-path="url(#p4afaaa9a1b)" d="M 34.967188 112.030817 
L 34.967188 112.030817 
L 34.967188 117.716971 
L 34.967188 117.716971 
z
" style="fill:#04d8b2;fill-opacity:0.74902;"/>
   </g>
   <g id="patch_87">
    <path clip-path="url(#p4afaaa9a1b)" d="M 34.967188 140.461587 
L 258.726586 140.461587 
L 258.726586 146.14774 
L 34.967188 146.14774 
z
" style="fill:#04d8b2;fill-opacity:0.74902;"/>
   </g>
   <g id="patch_88">
    <path clip-path="url(#p4afaaa9a1b)" d="M 34.967188 168.892356 
L 191.598766 168.892356 
L 191.598766 174.57851 
L 34.967188 174.57851 
z
" style="fill:#04d8b2;fill-opacity:0.74902;"/>
   </g>
   <g id="patch_89">
    <path clip-path="url(#p4afaaa9a1b)" d="M 34.967188 197.323125 
L 146.846887 197.323125 
L 146.846887 203.009279 
L 34.967188 203.009279 
z
" style="fill:#04d8b2;fill-opacity:0.74902;"/>
   </g>
   <g id="patch_90">
    <path clip-path="url(#p4afaaa9a1b)" d="M 34.967188 225.753894 
L 325.854406 225.753894 
L 325.854406 231.440048 
L 34.967188 231.440048 
z
" style="fill:#04d8b2;fill-opacity:0.74902;"/>
   </g>
   <g id="patch_91">
    <path clip-path="url(#p4afaaa9a1b)" d="M 34.967188 254.184663 
L 213.974706 254.184663 
L 213.974706 259.870817 
L 34.967188 259.870817 
z
" style="fill:#04d8b2;fill-opacity:0.74902;"/>
   </g>
   <g id="patch_92">
    <path clip-path="url(#p4afaaa9a1b)" d="M 34.967188 282.615433 
L 258.726586 282.615433 
L 258.726586 288.301587 
L 34.967188 288.301587 
z
" style="fill:#04d8b2;fill-opacity:0.74902;"/>
   </g>
   <g id="patch_93">
    <path clip-path="url(#p4afaaa9a1b)" d="M 34.967188 311.046202 
L 348.230345 311.046202 
L 348.230345 316.732356 
L 34.967188 316.732356 
z
" style="fill:#04d8b2;fill-opacity:0.74902;"/>
   </g>
   <g id="patch_94">
    <path clip-path="url(#p4afaaa9a1b)" d="M 34.967188 339.476971 
L 236.350646 339.476971 
L 236.350646 345.163125 
L 34.967188 345.163125 
z
" style="fill:#04d8b2;fill-opacity:0.74902;"/>
   </g>
   <g id="patch_95">
    <path clip-path="url(#p4afaaa9a1b)" d="M 34.967188 367.90774 
L 34.967188 367.90774 
L 34.967188 373.593894 
L 34.967188 373.593894 
z
" style="fill:#04d8b2;fill-opacity:0.74902;"/>
   </g>
   <g id="patch_96">
    <path clip-path="url(#p4afaaa9a1b)" d="M 34.967188 396.33851 
L 281.102526 396.33851 
L 281.102526 402.024663 
L 34.967188 402.024663 
z
" style="fill:#04d8b2;fill-opacity:0.74902;"/>
   </g>
   <g id="patch_97">
    <path clip-path="url(#p4afaaa9a1b)" d="M 34.967188 424.769279 
L 79.719067 424.769279 
L 79.719067 430.455433 
L 34.967188 430.455433 
z
" style="fill:#04d8b2;fill-opacity:0.74902;"/>
   </g>
   <g id="patch_98">
    <path clip-path="url(#p4afaaa9a1b)" d="M 34.967188 453.200048 
L 258.726586 453.200048 
L 258.726586 458.886202 
L 34.967188 458.886202 
z
" style="fill:#04d8b2;fill-opacity:0.74902;"/>
   </g>
   <g id="patch_99">
    <path clip-path="url(#p4afaaa9a1b)" d="M 34.967188 481.630817 
L 258.726586 481.630817 
L 258.726586 487.316971 
L 34.967188 487.316971 
z
" style="fill:#04d8b2;fill-opacity:0.74902;"/>
   </g>
   <g id="patch_100">
    <path clip-path="url(#p4afaaa9a1b)" d="M 34.967188 510.061587 
L 146.846887 510.061587 
L 146.846887 515.74774 
L 34.967188 515.74774 
z
" style="fill:#04d8b2;fill-opacity:0.74902;"/>
   </g>
   <g id="patch_101">
    <path clip-path="url(#p4afaaa9a1b)" d="M 34.967188 538.492356 
L 348.230345 538.492356 
L 348.230345 544.17851 
L 34.967188 544.17851 
z
" style="fill:#04d8b2;fill-opacity:0.74902;"/>
   </g>
   <g id="patch_102">
    <path clip-path="url(#p4afaaa9a1b)" d="M 34.967188 566.923125 
L 460.110045 566.923125 
L 460.110045 572.609279 
L 34.967188 572.609279 
z
" style="fill:#04d8b2;fill-opacity:0.74902;"/>
   </g>
   <g id="patch_103">
    <path clip-path="url(#p4afaaa9a1b)" d="M 34.967188 595.353894 
L 191.598766 595.353894 
L 191.598766 601.040048 
L 34.967188 601.040048 
z
" style="fill:#04d8b2;fill-opacity:0.74902;"/>
   </g>
   <g id="patch_104">
    <path clip-path="url(#p4afaaa9a1b)" d="M 34.967188 623.784663 
L 34.967188 623.784663 
L 34.967188 629.470817 
L 34.967188 629.470817 
z
" style="fill:#04d8b2;fill-opacity:0.74902;"/>
   </g>
   <g id="patch_105">
    <path clip-path="url(#p4afaaa9a1b)" d="M 34.967188 652.215433 
L 146.846887 652.215433 
L 146.846887 657.901587 
L 34.967188 657.901587 
z
" style="fill:#04d8b2;fill-opacity:0.74902;"/>
   </g>
   <g id="patch_106">
    <path clip-path="url(#p4afaaa9a1b)" d="M 34.967188 680.646202 
L 79.719067 680.646202 
L 79.719067 686.332356 
L 34.967188 686.332356 
z
" style="fill:#04d8b2;fill-opacity:0.74902;"/>
   </g>
   <g id="patch_107">
    <path clip-path="url(#p4afaaa9a1b)" d="M 34.967188 709.076971 
L 124.470947 709.076971 
L 124.470947 714.763125 
L 34.967188 714.763125 
z
" style="fill:#04d8b2;fill-opacity:0.74902;"/>
   </g>
   <g id="patch_108">
    <path clip-path="url(#p4afaaa9a1b)" d="M 34.967188 737.50774 
L 258.726586 737.50774 
L 258.726586 743.193894 
L 34.967188 743.193894 
z
" style="fill:#04d8b2;fill-opacity:0.74902;"/>
   </g>
   <g id="patch_109">
    <path clip-path="url(#p4afaaa9a1b)" d="M 34.967188 765.93851 
L 102.095007 765.93851 
L 102.095007 771.624663 
L 34.967188 771.624663 
z
" style="fill:#04d8b2;fill-opacity:0.74902;"/>
   </g>
   <g id="patch_110">
    <path clip-path="url(#p4afaaa9a1b)" d="M 34.967188 794.369279 
L 34.967188 794.369279 
L 34.967188 800.055433 
L 34.967188 800.055433 
z
" style="fill:#04d8b2;fill-opacity:0.74902;"/>
   </g>
   <g id="patch_111">
    <path d="M 34.967188 807.163125 
L 34.967188 31.003125 
" style="fill:none;stroke:#262626;stroke-linecap:square;stroke-linejoin:miter;stroke-width:1.25;"/>
   </g>
   <g id="patch_112">
    <path d="M 481.367188 807.163125 
L 481.367188 31.003125 
" style="fill:none;stroke:#262626;stroke-linecap:square;stroke-linejoin:miter;stroke-width:1.25;"/>
   </g>
   <g id="patch_113">
    <path d="M 34.967188 807.163125 
L 481.367188 807.163125 
" style="fill:none;stroke:#262626;stroke-linecap:square;stroke-linejoin:miter;stroke-width:1.25;"/>
   </g>
   <g id="patch_114">
    <path d="M 34.967188 31.003125 
L 481.367188 31.003125 
" style="fill:none;stroke:#262626;stroke-linecap:square;stroke-linejoin:miter;stroke-width:1.25;"/>
   </g>
   <g id="text_35">
    <!-- 1 -->
    <g style="fill:#262626;" transform="translate(59.580721 70.935757)scale(0.06 -0.06)">
     <use xlink:href="#ArialMT-31"/>
    </g>
   </g>
   <g id="text_36">
    <!-- 3 -->
    <g style="fill:#262626;" transform="translate(104.332601 127.797296)scale(0.06 -0.06)">
     <use xlink:href="#ArialMT-33"/>
    </g>
   </g>
   <g id="text_37">
    <!-- 3 -->
    <g style="fill:#262626;" transform="translate(104.332601 156.228065)scale(0.06 -0.06)">
     <use xlink:href="#ArialMT-33"/>
    </g>
   </g>
   <g id="text_38">
    <!-- 1 -->
    <g style="fill:#262626;" transform="translate(59.580721 184.658834)scale(0.06 -0.06)">
     <use xlink:href="#ArialMT-31"/>
    </g>
   </g>
   <g id="text_39">
    <!-- 6 -->
    <g style="fill:#262626;" transform="translate(171.460421 213.089603)scale(0.06 -0.06)">
     <use xlink:href="#ArialMT-36"/>
    </g>
   </g>
   <g id="text_40">
    <!-- 3 -->
    <g style="fill:#262626;" transform="translate(104.332601 241.520373)scale(0.06 -0.06)">
     <use xlink:href="#ArialMT-33"/>
    </g>
   </g>
   <g id="text_41">
    <!-- 3 -->
    <g style="fill:#262626;" transform="translate(104.332601 269.951142)scale(0.06 -0.06)">
     <use xlink:href="#ArialMT-33"/>
    </g>
   </g>
   <g id="text_42">
    <!-- 6 -->
    <g style="fill:#262626;" transform="translate(171.460421 298.381911)scale(0.06 -0.06)">
     <use xlink:href="#ArialMT-36"/>
    </g>
   </g>
   <g id="text_43">
    <!-- 2 -->
    <g style="fill:#262626;" transform="translate(81.956661 326.81268)scale(0.06 -0.06)">
     <use xlink:href="#ArialMT-32"/>
    </g>
   </g>
   <g id="text_44">
    <!-- 2 -->
    <g style="fill:#262626;" transform="translate(81.956661 383.674219)scale(0.06 -0.06)">
     <use xlink:href="#ArialMT-32"/>
    </g>
   </g>
   <g id="text_45">
    <!-- 1 -->
    <g style="fill:#262626;" transform="translate(59.580721 412.104988)scale(0.06 -0.06)">
     <use xlink:href="#ArialMT-31"/>
    </g>
   </g>
   <g id="text_46">
    <!-- 4 -->
    <g style="fill:#262626;" transform="translate(126.708541 440.535757)scale(0.06 -0.06)">
     <use xlink:href="#ArialMT-34"/>
    </g>
   </g>
   <g id="text_47">
    <!-- 5 -->
    <g style="fill:#262626;" transform="translate(149.084481 468.966526)scale(0.06 -0.06)">
     <use xlink:href="#ArialMT-35"/>
    </g>
   </g>
   <g id="text_48">
    <!-- 1 -->
    <g style="fill:#262626;" transform="translate(59.580721 497.397296)scale(0.06 -0.06)">
     <use xlink:href="#ArialMT-31"/>
    </g>
   </g>
   <g id="text_49">
    <!-- 4 -->
    <g style="fill:#262626;" transform="translate(126.708541 525.828065)scale(0.06 -0.06)">
     <use xlink:href="#ArialMT-34"/>
    </g>
   </g>
   <g id="text_50">
    <!-- 5 -->
    <g style="fill:#262626;" transform="translate(149.084481 554.258834)scale(0.06 -0.06)">
     <use xlink:href="#ArialMT-35"/>
    </g>
   </g>
   <g id="text_51">
    <!-- 2 -->
    <g style="fill:#262626;" transform="translate(81.956661 582.689603)scale(0.06 -0.06)">
     <use xlink:href="#ArialMT-32"/>
    </g>
   </g>
   <g id="text_52">
    <!-- 3 -->
    <g style="fill:#262626;" transform="translate(104.332601 639.551142)scale(0.06 -0.06)">
     <use xlink:href="#ArialMT-33"/>
    </g>
   </g>
   <g id="text_53">
    <!-- 1 -->
    <g style="fill:#262626;" transform="translate(59.580721 667.981911)scale(0.06 -0.06)">
     <use xlink:href="#ArialMT-31"/>
    </g>
   </g>
   <g id="text_54">
    <!-- 4 -->
    <g style="fill:#262626;" transform="translate(126.708541 696.41268)scale(0.06 -0.06)">
     <use xlink:href="#ArialMT-34"/>
    </g>
   </g>
   <g id="text_55">
    <!-- 6 -->
    <g style="fill:#262626;" transform="translate(171.460421 724.84345)scale(0.06 -0.06)">
     <use xlink:href="#ArialMT-36"/>
    </g>
   </g>
   <g id="text_56">
    <!-- 3 -->
    <g style="fill:#262626;" transform="translate(104.332601 753.274219)scale(0.06 -0.06)">
     <use xlink:href="#ArialMT-33"/>
    </g>
   </g>
   <g id="text_57">
    <!-- 1 -->
    <g style="fill:#262626;" transform="translate(59.580721 76.621911)scale(0.06 -0.06)">
     <use xlink:href="#ArialMT-31"/>
    </g>
   </g>
   <g id="text_58">
    <!-- 3 -->
    <g style="fill:#262626;" transform="translate(104.332601 133.48345)scale(0.06 -0.06)">
     <use xlink:href="#ArialMT-33"/>
    </g>
   </g>
   <g id="text_59">
    <!-- 2 -->
    <g style="fill:#262626;" transform="translate(81.956661 161.914219)scale(0.06 -0.06)">
     <use xlink:href="#ArialMT-32"/>
    </g>
   </g>
   <g id="text_60">
    <!-- 1 -->
    <g style="fill:#262626;" transform="translate(59.580721 190.344988)scale(0.06 -0.06)">
     <use xlink:href="#ArialMT-31"/>
    </g>
   </g>
   <g id="text_61">
    <!-- 3 -->
    <g style="fill:#262626;" transform="translate(104.332601 218.775757)scale(0.06 -0.06)">
     <use xlink:href="#ArialMT-33"/>
    </g>
   </g>
   <g id="text_62">
    <!-- 2 -->
    <g style="fill:#262626;" transform="translate(81.956661 247.206526)scale(0.06 -0.06)">
     <use xlink:href="#ArialMT-32"/>
    </g>
   </g>
   <g id="text_63">
    <!-- 3 -->
    <g style="fill:#262626;" transform="translate(104.332601 275.637296)scale(0.06 -0.06)">
     <use xlink:href="#ArialMT-33"/>
    </g>
   </g>
   <g id="text_64">
    <!-- 3 -->
    <g style="fill:#262626;" transform="translate(104.332601 304.068065)scale(0.06 -0.06)">
     <use xlink:href="#ArialMT-33"/>
    </g>
   </g>
   <g id="text_65">
    <!-- 5 -->
    <g style="fill:#262626;" transform="translate(149.084481 332.498834)scale(0.06 -0.06)">
     <use xlink:href="#ArialMT-35"/>
    </g>
   </g>
   <g id="text_66">
    <!-- 3 -->
    <g style="fill:#262626;" transform="translate(104.332601 389.360373)scale(0.06 -0.06)">
     <use xlink:href="#ArialMT-33"/>
    </g>
   </g>
   <g id="text_67">
    <!-- 2 -->
    <g style="fill:#262626;" transform="translate(81.956661 446.221911)scale(0.06 -0.06)">
     <use xlink:href="#ArialMT-32"/>
    </g>
   </g>
   <g id="text_68">
    <!-- 1 -->
    <g style="fill:#262626;" transform="translate(59.580721 474.65268)scale(0.06 -0.06)">
     <use xlink:href="#ArialMT-31"/>
    </g>
   </g>
   <g id="text_69">
    <!-- 3 -->
    <g style="fill:#262626;" transform="translate(104.332601 503.08345)scale(0.06 -0.06)">
     <use xlink:href="#ArialMT-33"/>
    </g>
   </g>
   <g id="text_70">
    <!-- 6 -->
    <g style="fill:#262626;" transform="translate(171.460421 531.514219)scale(0.06 -0.06)">
     <use xlink:href="#ArialMT-36"/>
    </g>
   </g>
   <g id="text_71">
    <!-- 7 -->
    <g style="fill:#262626;" transform="translate(193.83636 559.944988)scale(0.06 -0.06)">
     <use xlink:href="#ArialMT-37"/>
    </g>
   </g>
   <g id="text_72">
    <!-- 3 -->
    <g style="fill:#262626;" transform="translate(104.332601 588.375757)scale(0.06 -0.06)">
     <use xlink:href="#ArialMT-33"/>
    </g>
   </g>
   <g id="text_73">
    <!-- 2 -->
    <g style="fill:#262626;" transform="translate(81.956661 645.237296)scale(0.06 -0.06)">
     <use xlink:href="#ArialMT-32"/>
    </g>
   </g>
   <g id="text_74">
    <!-- 1 -->
    <g style="fill:#262626;" transform="translate(59.580721 673.668065)scale(0.06 -0.06)">
     <use xlink:href="#ArialMT-31"/>
    </g>
   </g>
   <g id="text_75">
    <!-- 4 -->
    <g style="fill:#262626;" transform="translate(126.708541 730.529603)scale(0.06 -0.06)">
     <use xlink:href="#ArialMT-34"/>
    </g>
   </g>
   <g id="text_76">
    <!-- 4 -->
    <g style="fill:#262626;" transform="translate(126.708541 139.169603)scale(0.06 -0.06)">
     <use xlink:href="#ArialMT-34"/>
    </g>
   </g>
   <g id="text_77">
    <!-- 2 -->
    <g style="fill:#262626;" transform="translate(81.956661 167.600373)scale(0.06 -0.06)">
     <use xlink:href="#ArialMT-32"/>
    </g>
   </g>
   <g id="text_78">
    <!-- 3 -->
    <g style="fill:#262626;" transform="translate(104.332601 196.031142)scale(0.06 -0.06)">
     <use xlink:href="#ArialMT-33"/>
    </g>
   </g>
   <g id="text_79">
    <!-- 4 -->
    <g style="fill:#262626;" transform="translate(126.708541 224.461911)scale(0.06 -0.06)">
     <use xlink:href="#ArialMT-34"/>
    </g>
   </g>
   <g id="text_80">
    <!-- 3 -->
    <g style="fill:#262626;" transform="translate(104.332601 252.89268)scale(0.06 -0.06)">
     <use xlink:href="#ArialMT-33"/>
    </g>
   </g>
   <g id="text_81">
    <!-- 4 -->
    <g style="fill:#262626;" transform="translate(126.708541 281.32345)scale(0.06 -0.06)">
     <use xlink:href="#ArialMT-34"/>
    </g>
   </g>
   <g id="text_82">
    <!-- 5 -->
    <g style="fill:#262626;" transform="translate(149.084481 309.754219)scale(0.06 -0.06)">
     <use xlink:href="#ArialMT-35"/>
    </g>
   </g>
   <g id="text_83">
    <!-- 2 -->
    <g style="fill:#262626;" transform="translate(81.956661 338.184988)scale(0.06 -0.06)">
     <use xlink:href="#ArialMT-32"/>
    </g>
   </g>
   <g id="text_84">
    <!-- 6 -->
    <g style="fill:#262626;" transform="translate(171.460421 395.046526)scale(0.06 -0.06)">
     <use xlink:href="#ArialMT-36"/>
    </g>
   </g>
   <g id="text_85">
    <!-- 1 -->
    <g style="fill:#262626;" transform="translate(59.580721 423.477296)scale(0.06 -0.06)">
     <use xlink:href="#ArialMT-31"/>
    </g>
   </g>
   <g id="text_86">
    <!-- 4 -->
    <g style="fill:#262626;" transform="translate(126.708541 451.908065)scale(0.06 -0.06)">
     <use xlink:href="#ArialMT-34"/>
    </g>
   </g>
   <g id="text_87">
    <!-- 4 -->
    <g style="fill:#262626;" transform="translate(126.708541 480.338834)scale(0.06 -0.06)">
     <use xlink:href="#ArialMT-34"/>
    </g>
   </g>
   <g id="text_88">
    <!-- 1 -->
    <g style="fill:#262626;" transform="translate(59.580721 508.769603)scale(0.06 -0.06)">
     <use xlink:href="#ArialMT-31"/>
    </g>
   </g>
   <g id="text_89">
    <!-- 4 -->
    <g style="fill:#262626;" transform="translate(126.708541 537.200373)scale(0.06 -0.06)">
     <use xlink:href="#ArialMT-34"/>
    </g>
   </g>
   <g id="text_90">
    <!-- 7 -->
    <g style="fill:#262626;" transform="translate(193.83636 565.631142)scale(0.06 -0.06)">
     <use xlink:href="#ArialMT-37"/>
    </g>
   </g>
   <g id="text_91">
    <!-- 2 -->
    <g style="fill:#262626;" transform="translate(81.956661 594.061911)scale(0.06 -0.06)">
     <use xlink:href="#ArialMT-32"/>
    </g>
   </g>
   <g id="text_92">
    <!-- 2 -->
    <g style="fill:#262626;" transform="translate(81.956661 87.994219)scale(0.06 -0.06)">
     <use xlink:href="#ArialMT-32"/>
    </g>
   </g>
   <g id="text_93">
    <!-- 10 -->
    <g style="fill:#262626;" transform="translate(260.96418 144.855757)scale(0.06 -0.06)">
     <use xlink:href="#ArialMT-31"/>
     <use x="55.615234" xlink:href="#ArialMT-30"/>
    </g>
   </g>
   <g id="text_94">
    <!-- 7 -->
    <g style="fill:#262626;" transform="translate(193.83636 173.286526)scale(0.06 -0.06)">
     <use xlink:href="#ArialMT-37"/>
    </g>
   </g>
   <g id="text_95">
    <!-- 5 -->
    <g style="fill:#262626;" transform="translate(149.084481 201.717296)scale(0.06 -0.06)">
     <use xlink:href="#ArialMT-35"/>
    </g>
   </g>
   <g id="text_96">
    <!-- 13 -->
    <g style="fill:#262626;" transform="translate(328.092 230.148065)scale(0.06 -0.06)">
     <use xlink:href="#ArialMT-31"/>
     <use x="55.615234" xlink:href="#ArialMT-33"/>
    </g>
   </g>
   <g id="text_97">
    <!-- 8 -->
    <g style="fill:#262626;" transform="translate(216.2123 258.578834)scale(0.06 -0.06)">
     <use xlink:href="#ArialMT-38"/>
    </g>
   </g>
   <g id="text_98">
    <!-- 10 -->
    <g style="fill:#262626;" transform="translate(260.96418 287.009603)scale(0.06 -0.06)">
     <use xlink:href="#ArialMT-31"/>
     <use x="55.615234" xlink:href="#ArialMT-30"/>
    </g>
   </g>
   <g id="text_99">
    <!-- 14 -->
    <g style="fill:#262626;" transform="translate(350.467939 315.440373)scale(0.06 -0.06)">
     <use xlink:href="#ArialMT-31"/>
     <use x="55.615234" xlink:href="#ArialMT-34"/>
    </g>
   </g>
   <g id="text_100">
    <!-- 9 -->
    <g style="fill:#262626;" transform="translate(238.58824 343.871142)scale(0.06 -0.06)">
     <use xlink:href="#ArialMT-39"/>
    </g>
   </g>
   <g id="text_101">
    <!-- 11 -->
    <g style="fill:#262626;" transform="translate(283.34012 400.73268)scale(0.06 -0.06)">
     <use xlink:href="#ArialMT-31"/>
     <use x="55.505859" xlink:href="#ArialMT-31"/>
    </g>
   </g>
   <g id="text_102">
    <!-- 2 -->
    <g style="fill:#262626;" transform="translate(81.956661 429.16345)scale(0.06 -0.06)">
     <use xlink:href="#ArialMT-32"/>
    </g>
   </g>
   <g id="text_103">
    <!-- 10 -->
    <g style="fill:#262626;" transform="translate(260.96418 457.594219)scale(0.06 -0.06)">
     <use xlink:href="#ArialMT-31"/>
     <use x="55.615234" xlink:href="#ArialMT-30"/>
    </g>
   </g>
   <g id="text_104">
    <!-- 10 -->
    <g style="fill:#262626;" transform="translate(260.96418 486.024988)scale(0.06 -0.06)">
     <use xlink:href="#ArialMT-31"/>
     <use x="55.615234" xlink:href="#ArialMT-30"/>
    </g>
   </g>
   <g id="text_105">
    <!-- 5 -->
    <g style="fill:#262626;" transform="translate(149.084481 514.455757)scale(0.06 -0.06)">
     <use xlink:href="#ArialMT-35"/>
    </g>
   </g>
   <g id="text_106">
    <!-- 14 -->
    <g style="fill:#262626;" transform="translate(350.467939 542.886526)scale(0.06 -0.06)">
     <use xlink:href="#ArialMT-31"/>
     <use x="55.615234" xlink:href="#ArialMT-34"/>
    </g>
   </g>
   <g id="text_107">
    <!-- 19 -->
    <g style="fill:#262626;" transform="translate(462.347639 571.317296)scale(0.06 -0.06)">
     <use xlink:href="#ArialMT-31"/>
     <use x="55.615234" xlink:href="#ArialMT-39"/>
    </g>
   </g>
   <g id="text_108">
    <!-- 7 -->
    <g style="fill:#262626;" transform="translate(193.83636 599.748065)scale(0.06 -0.06)">
     <use xlink:href="#ArialMT-37"/>
    </g>
   </g>
   <g id="text_109">
    <!-- 5 -->
    <g style="fill:#262626;" transform="translate(149.084481 656.609603)scale(0.06 -0.06)">
     <use xlink:href="#ArialMT-35"/>
    </g>
   </g>
   <g id="text_110">
    <!-- 2 -->
    <g style="fill:#262626;" transform="translate(81.956661 685.040373)scale(0.06 -0.06)">
     <use xlink:href="#ArialMT-32"/>
    </g>
   </g>
   <g id="text_111">
    <!-- 4 -->
    <g style="fill:#262626;" transform="translate(126.708541 713.471142)scale(0.06 -0.06)">
     <use xlink:href="#ArialMT-34"/>
    </g>
   </g>
   <g id="text_112">
    <!-- 10 -->
    <g style="fill:#262626;" transform="translate(260.96418 741.901911)scale(0.06 -0.06)">
     <use xlink:href="#ArialMT-31"/>
     <use x="55.615234" xlink:href="#ArialMT-30"/>
    </g>
   </g>
   <g id="text_113">
    <!-- 3 -->
    <g style="fill:#262626;" transform="translate(104.332601 770.33268)scale(0.06 -0.06)">
     <use xlink:href="#ArialMT-33"/>
    </g>
   </g>
   <g id="legend_1">
    <g id="patch_115">
     <path d="M 392.123438 47.160937 
L 412.123438 47.160937 
L 412.123438 40.160937 
L 392.123438 40.160937 
z
" style="fill:#0485d1;fill-opacity:0.74902;"/>
    </g>
    <g id="text_114">
     <!-- Problem -->
     <defs>
      <path d="M 14.703125 0 
L 6.546875 0 
L 6.546875 71.578125 
L 15.328125 71.578125 
L 15.328125 46.046875 
Q 20.90625 53.03125 29.546875 53.03125 
Q 34.328125 53.03125 38.59375 51.09375 
Q 42.875 49.171875 45.625 45.671875 
Q 48.390625 42.1875 49.953125 37.25 
Q 51.515625 32.328125 51.515625 26.703125 
Q 51.515625 13.375 44.921875 6.09375 
Q 38.328125 -1.171875 29.109375 -1.171875 
Q 19.921875 -1.171875 14.703125 6.5 
z
M 14.59375 26.3125 
Q 14.59375 17 17.140625 12.84375 
Q 21.296875 6.0625 28.375 6.0625 
Q 34.125 6.0625 38.328125 11.0625 
Q 42.53125 16.0625 42.53125 25.984375 
Q 42.53125 36.140625 38.5 40.96875 
Q 34.46875 45.796875 28.765625 45.796875 
Q 23 45.796875 18.796875 40.796875 
Q 14.59375 35.796875 14.59375 26.3125 
z
" id="ArialMT-62"/>
      <path d="M 6.59375 0 
L 6.59375 51.859375 
L 14.453125 51.859375 
L 14.453125 44.578125 
Q 16.890625 48.390625 20.9375 50.703125 
Q 25 53.03125 30.171875 53.03125 
Q 35.9375 53.03125 39.625 50.640625 
Q 43.3125 48.25 44.828125 43.953125 
Q 50.984375 53.03125 60.84375 53.03125 
Q 68.5625 53.03125 72.703125 48.75 
Q 76.859375 44.484375 76.859375 35.59375 
L 76.859375 0 
L 68.109375 0 
L 68.109375 32.671875 
Q 68.109375 37.9375 67.25 40.25 
Q 66.40625 42.578125 64.15625 43.984375 
Q 61.921875 45.40625 58.890625 45.40625 
Q 53.421875 45.40625 49.796875 41.765625 
Q 46.1875 38.140625 46.1875 30.125 
L 46.1875 0 
L 37.40625 0 
L 37.40625 33.6875 
Q 37.40625 39.546875 35.25 42.46875 
Q 33.109375 45.40625 28.21875 45.40625 
Q 24.515625 45.40625 21.359375 43.453125 
Q 18.21875 41.5 16.796875 37.734375 
Q 15.375 33.984375 15.375 26.90625 
L 15.375 0 
z
" id="ArialMT-6d"/>
     </defs>
     <g style="fill:#262626;" transform="translate(420.123438 47.160937)scale(0.1 -0.1)">
      <use xlink:href="#ArialMT-50"/>
      <use x="66.699219" xlink:href="#ArialMT-72"/>
      <use x="100" xlink:href="#ArialMT-6f"/>
      <use x="155.615234" xlink:href="#ArialMT-62"/>
      <use x="211.230469" xlink:href="#ArialMT-6c"/>
      <use x="233.447266" xlink:href="#ArialMT-65"/>
      <use x="289.0625" xlink:href="#ArialMT-6d"/>
     </g>
    </g>
    <g id="patch_116">
     <path d="M 392.123438 61.30625 
L 412.123438 61.30625 
L 412.123438 54.30625 
L 392.123438 54.30625 
z
" style="fill:#75bbfd;fill-opacity:0.74902;"/>
    </g>
    <g id="text_115">
     <!-- Assumption -->
     <defs>
      <path d="M -0.140625 0 
L 27.34375 71.578125 
L 37.546875 71.578125 
L 66.84375 0 
L 56.0625 0 
L 47.703125 21.6875 
L 17.78125 21.6875 
L 9.90625 0 
z
M 20.515625 29.390625 
L 44.78125 29.390625 
L 37.3125 49.21875 
Q 33.890625 58.25 32.234375 64.0625 
Q 30.859375 57.171875 28.375 50.390625 
z
" id="ArialMT-41"/>
      <path d="M 6.59375 -19.875 
L 6.59375 51.859375 
L 14.59375 51.859375 
L 14.59375 45.125 
Q 17.4375 49.078125 21 51.046875 
Q 24.5625 53.03125 29.640625 53.03125 
Q 36.28125 53.03125 41.359375 49.609375 
Q 46.4375 46.1875 49.015625 39.953125 
Q 51.609375 33.734375 51.609375 26.3125 
Q 51.609375 18.359375 48.75 11.984375 
Q 45.90625 5.609375 40.453125 2.21875 
Q 35.015625 -1.171875 29 -1.171875 
Q 24.609375 -1.171875 21.109375 0.6875 
Q 17.625 2.546875 15.375 5.375 
L 15.375 -19.875 
z
M 14.546875 25.640625 
Q 14.546875 15.625 18.59375 10.84375 
Q 22.65625 6.0625 28.421875 6.0625 
Q 34.28125 6.0625 38.453125 11.015625 
Q 42.625 15.96875 42.625 26.375 
Q 42.625 36.28125 38.546875 41.203125 
Q 34.46875 46.140625 28.8125 46.140625 
Q 23.1875 46.140625 18.859375 40.890625 
Q 14.546875 35.640625 14.546875 25.640625 
z
" id="ArialMT-70"/>
     </defs>
     <g style="fill:#262626;" transform="translate(420.123438 61.30625)scale(0.1 -0.1)">
      <use xlink:href="#ArialMT-41"/>
      <use x="66.699219" xlink:href="#ArialMT-73"/>
      <use x="116.699219" xlink:href="#ArialMT-73"/>
      <use x="166.699219" xlink:href="#ArialMT-75"/>
      <use x="222.314453" xlink:href="#ArialMT-6d"/>
      <use x="305.615234" xlink:href="#ArialMT-70"/>
      <use x="361.230469" xlink:href="#ArialMT-74"/>
      <use x="389.013672" xlink:href="#ArialMT-69"/>
      <use x="411.230469" xlink:href="#ArialMT-6f"/>
      <use x="466.845703" xlink:href="#ArialMT-6e"/>
     </g>
    </g>
    <g id="patch_117">
     <path d="M 392.123438 75.451562 
L 412.123438 75.451562 
L 412.123438 68.451562 
L 392.123438 68.451562 
z
" style="fill:#00ffff;fill-opacity:0.74902;"/>
    </g>
    <g id="text_116">
     <!-- Error -->
     <defs>
      <path d="M 7.90625 0 
L 7.90625 71.578125 
L 59.671875 71.578125 
L 59.671875 63.140625 
L 17.390625 63.140625 
L 17.390625 41.21875 
L 56.984375 41.21875 
L 56.984375 32.8125 
L 17.390625 32.8125 
L 17.390625 8.453125 
L 61.328125 8.453125 
L 61.328125 0 
z
" id="ArialMT-45"/>
     </defs>
     <g style="fill:#262626;" transform="translate(420.123438 75.451562)scale(0.1 -0.1)">
      <use xlink:href="#ArialMT-45"/>
      <use x="66.699219" xlink:href="#ArialMT-72"/>
      <use x="100" xlink:href="#ArialMT-72"/>
      <use x="133.300781" xlink:href="#ArialMT-6f"/>
      <use x="188.916016" xlink:href="#ArialMT-72"/>
     </g>
    </g>
    <g id="patch_118">
     <path d="M 392.123438 89.596875 
L 412.123438 89.596875 
L 412.123438 82.596875 
L 392.123438 82.596875 
z
" style="fill:#04d8b2;fill-opacity:0.74902;"/>
    </g>
    <g id="text_117">
     <!-- All -->
     <g style="fill:#262626;" transform="translate(420.123438 89.596875)scale(0.1 -0.1)">
      <use xlink:href="#ArialMT-41"/>
      <use x="66.699219" xlink:href="#ArialMT-6c"/>
      <use x="88.916016" xlink:href="#ArialMT-6c"/>
     </g>
    </g>
   </g>
  </g>
 </g>
 <defs>
  <clipPath id="p4afaaa9a1b">
   <rect height="776.16" width="446.4" x="34.967188" y="31.003125"/>
  </clipPath>
 </defs>
</svg>
