<?xml version="1.0" encoding="utf-8" standalone="no"?>
<!DOCTYPE svg PUBLIC "-//W3C//DTD SVG 1.1//EN"
  "http://www.w3.org/Graphics/SVG/1.1/DTD/svg11.dtd">
<!-- Created with matplotlib (http://matplotlib.org/) -->
<svg height="703pt" version="1.1" viewBox="0 0 376 703" width="376pt" xmlns="http://www.w3.org/2000/svg" xmlns:xlink="http://www.w3.org/1999/xlink">
 <defs>
  <style type="text/css">
*{stroke-linecap:butt;stroke-linejoin:round;}
  </style>
 </defs>
 <g id="figure_1">
  <g id="patch_1">
   <path d="M 0 703.483125 
L 376.967187 703.483125 
L 376.967187 0 
L 0 0 
z
" style="fill:#ffffff;"/>
  </g>
  <g id="axes_1">
   <g id="patch_2">
    <path d="M 34.967188 696.283125 
L 369.767188 696.283125 
L 369.767188 31.003125 
L 34.967188 31.003125 
z
" style="fill:#ffffff;"/>
   </g>
   <g id="matplotlib.axis_1">
    <g id="xtick_1">
     <g id="line2d_1"/>
     <g id="text_1">
      <!-- 0 -->
      <defs>
       <path d="M 4.15625 35.296875 
Q 4.15625 48 6.765625 55.734375 
Q 9.375 63.484375 14.515625 67.671875 
Q 19.671875 71.875 27.484375 71.875 
Q 33.25 71.875 37.59375 69.546875 
Q 41.9375 67.234375 44.765625 62.859375 
Q 47.609375 58.5 49.21875 52.21875 
Q 50.828125 45.953125 50.828125 35.296875 
Q 50.828125 22.703125 48.234375 14.96875 
Q 45.65625 7.234375 40.5 3 
Q 35.359375 -1.21875 27.484375 -1.21875 
Q 17.140625 -1.21875 11.234375 6.203125 
Q 4.15625 15.140625 4.15625 35.296875 
z
M 13.1875 35.296875 
Q 13.1875 17.671875 17.3125 11.828125 
Q 21.4375 6 27.484375 6 
Q 33.546875 6 37.671875 11.859375 
Q 41.796875 17.71875 41.796875 35.296875 
Q 41.796875 52.984375 37.671875 58.78125 
Q 33.546875 64.59375 27.390625 64.59375 
Q 21.34375 64.59375 17.71875 59.46875 
Q 13.1875 52.9375 13.1875 35.296875 
z
" id="ArialMT-30"/>
      </defs>
      <g style="fill:#262626;" transform="translate(32.186719 25.515625)scale(0.1 -0.1)">
       <use xlink:href="#ArialMT-30"/>
      </g>
     </g>
    </g>
    <g id="xtick_2">
     <g id="line2d_2"/>
     <g id="text_2">
      <!-- 1 -->
      <defs>
       <path d="M 37.25 0 
L 28.46875 0 
L 28.46875 56 
Q 25.296875 52.984375 20.140625 49.953125 
Q 14.984375 46.921875 10.890625 45.40625 
L 10.890625 53.90625 
Q 18.265625 57.375 23.78125 62.296875 
Q 29.296875 67.234375 31.59375 71.875 
L 37.25 71.875 
z
" id="ArialMT-31"/>
      </defs>
      <g style="fill:#262626;" transform="translate(77.737739 25.515625)scale(0.1 -0.1)">
       <use xlink:href="#ArialMT-31"/>
      </g>
     </g>
    </g>
    <g id="xtick_3">
     <g id="line2d_3"/>
     <g id="text_3">
      <!-- 2 -->
      <defs>
       <path d="M 50.34375 8.453125 
L 50.34375 0 
L 3.03125 0 
Q 2.9375 3.171875 4.046875 6.109375 
Q 5.859375 10.9375 9.828125 15.625 
Q 13.8125 20.3125 21.34375 26.46875 
Q 33.015625 36.03125 37.109375 41.625 
Q 41.21875 47.21875 41.21875 52.203125 
Q 41.21875 57.421875 37.46875 61 
Q 33.734375 64.59375 27.734375 64.59375 
Q 21.390625 64.59375 17.578125 60.78125 
Q 13.765625 56.984375 13.71875 50.25 
L 4.6875 51.171875 
Q 5.609375 61.28125 11.65625 66.578125 
Q 17.71875 71.875 27.9375 71.875 
Q 38.234375 71.875 44.234375 66.15625 
Q 50.25 60.453125 50.25 52 
Q 50.25 47.703125 48.484375 43.546875 
Q 46.734375 39.40625 42.65625 34.8125 
Q 38.578125 30.21875 29.109375 22.21875 
Q 21.1875 15.578125 18.9375 13.203125 
Q 16.703125 10.84375 15.234375 8.453125 
z
" id="ArialMT-32"/>
      </defs>
      <g style="fill:#262626;" transform="translate(123.28876 25.515625)scale(0.1 -0.1)">
       <use xlink:href="#ArialMT-32"/>
      </g>
     </g>
    </g>
    <g id="xtick_4">
     <g id="line2d_4"/>
     <g id="text_4">
      <!-- 3 -->
      <defs>
       <path d="M 4.203125 18.890625 
L 12.984375 20.0625 
Q 14.5 12.59375 18.140625 9.296875 
Q 21.78125 6 27 6 
Q 33.203125 6 37.46875 10.296875 
Q 41.75 14.59375 41.75 20.953125 
Q 41.75 27 37.796875 30.921875 
Q 33.84375 34.859375 27.734375 34.859375 
Q 25.25 34.859375 21.53125 33.890625 
L 22.515625 41.609375 
Q 23.390625 41.5 23.921875 41.5 
Q 29.546875 41.5 34.03125 44.421875 
Q 38.53125 47.359375 38.53125 53.46875 
Q 38.53125 58.296875 35.25 61.46875 
Q 31.984375 64.65625 26.8125 64.65625 
Q 21.6875 64.65625 18.265625 61.421875 
Q 14.84375 58.203125 13.875 51.765625 
L 5.078125 53.328125 
Q 6.6875 62.15625 12.390625 67.015625 
Q 18.109375 71.875 26.609375 71.875 
Q 32.46875 71.875 37.390625 69.359375 
Q 42.328125 66.84375 44.9375 62.5 
Q 47.5625 58.15625 47.5625 53.265625 
Q 47.5625 48.640625 45.0625 44.828125 
Q 42.578125 41.015625 37.703125 38.765625 
Q 44.046875 37.3125 47.5625 32.6875 
Q 51.078125 28.078125 51.078125 21.140625 
Q 51.078125 11.765625 44.234375 5.25 
Q 37.40625 -1.265625 26.953125 -1.265625 
Q 17.53125 -1.265625 11.296875 4.34375 
Q 5.078125 9.96875 4.203125 18.890625 
z
" id="ArialMT-33"/>
      </defs>
      <g style="fill:#262626;" transform="translate(168.83978 25.515625)scale(0.1 -0.1)">
       <use xlink:href="#ArialMT-33"/>
      </g>
     </g>
    </g>
    <g id="xtick_5">
     <g id="line2d_5"/>
     <g id="text_5">
      <!-- 4 -->
      <defs>
       <path d="M 32.328125 0 
L 32.328125 17.140625 
L 1.265625 17.140625 
L 1.265625 25.203125 
L 33.9375 71.578125 
L 41.109375 71.578125 
L 41.109375 25.203125 
L 50.78125 25.203125 
L 50.78125 17.140625 
L 41.109375 17.140625 
L 41.109375 0 
z
M 32.328125 25.203125 
L 32.328125 57.46875 
L 9.90625 25.203125 
z
" id="ArialMT-34"/>
      </defs>
      <g style="fill:#262626;" transform="translate(214.3908 25.515625)scale(0.1 -0.1)">
       <use xlink:href="#ArialMT-34"/>
      </g>
     </g>
    </g>
    <g id="xtick_6">
     <g id="line2d_6"/>
     <g id="text_6">
      <!-- 5 -->
      <defs>
       <path d="M 4.15625 18.75 
L 13.375 19.53125 
Q 14.40625 12.796875 18.140625 9.390625 
Q 21.875 6 27.15625 6 
Q 33.5 6 37.890625 10.78125 
Q 42.28125 15.578125 42.28125 23.484375 
Q 42.28125 31 38.0625 35.34375 
Q 33.84375 39.703125 27 39.703125 
Q 22.75 39.703125 19.328125 37.765625 
Q 15.921875 35.84375 13.96875 32.765625 
L 5.71875 33.84375 
L 12.640625 70.609375 
L 48.25 70.609375 
L 48.25 62.203125 
L 19.671875 62.203125 
L 15.828125 42.96875 
Q 22.265625 47.46875 29.34375 47.46875 
Q 38.71875 47.46875 45.15625 40.96875 
Q 51.609375 34.46875 51.609375 24.265625 
Q 51.609375 14.546875 45.953125 7.46875 
Q 39.0625 -1.21875 27.15625 -1.21875 
Q 17.390625 -1.21875 11.203125 4.25 
Q 5.03125 9.71875 4.15625 18.75 
z
" id="ArialMT-35"/>
      </defs>
      <g style="fill:#262626;" transform="translate(259.941821 25.515625)scale(0.1 -0.1)">
       <use xlink:href="#ArialMT-35"/>
      </g>
     </g>
    </g>
    <g id="xtick_7">
     <g id="line2d_7"/>
     <g id="text_7">
      <!-- 6 -->
      <defs>
       <path d="M 49.75 54.046875 
L 41.015625 53.375 
Q 39.84375 58.546875 37.703125 60.890625 
Q 34.125 64.65625 28.90625 64.65625 
Q 24.703125 64.65625 21.53125 62.3125 
Q 17.390625 59.28125 14.984375 53.46875 
Q 12.59375 47.65625 12.5 36.921875 
Q 15.671875 41.75 20.265625 44.09375 
Q 24.859375 46.4375 29.890625 46.4375 
Q 38.671875 46.4375 44.84375 39.96875 
Q 51.03125 33.5 51.03125 23.25 
Q 51.03125 16.5 48.125 10.71875 
Q 45.21875 4.9375 40.140625 1.859375 
Q 35.0625 -1.21875 28.609375 -1.21875 
Q 17.625 -1.21875 10.6875 6.859375 
Q 3.765625 14.9375 3.765625 33.5 
Q 3.765625 54.25 11.421875 63.671875 
Q 18.109375 71.875 29.4375 71.875 
Q 37.890625 71.875 43.28125 67.140625 
Q 48.6875 62.40625 49.75 54.046875 
z
M 13.875 23.1875 
Q 13.875 18.65625 15.796875 14.5 
Q 17.71875 10.359375 21.1875 8.171875 
Q 24.65625 6 28.46875 6 
Q 34.03125 6 38.03125 10.484375 
Q 42.046875 14.984375 42.046875 22.703125 
Q 42.046875 30.125 38.078125 34.390625 
Q 34.125 38.671875 28.125 38.671875 
Q 22.171875 38.671875 18.015625 34.390625 
Q 13.875 30.125 13.875 23.1875 
z
" id="ArialMT-36"/>
      </defs>
      <g style="fill:#262626;" transform="translate(305.492841 25.515625)scale(0.1 -0.1)">
       <use xlink:href="#ArialMT-36"/>
      </g>
     </g>
    </g>
    <g id="xtick_8">
     <g id="line2d_8"/>
     <g id="text_8">
      <!-- 7 -->
      <defs>
       <path d="M 4.734375 62.203125 
L 4.734375 70.65625 
L 51.078125 70.65625 
L 51.078125 63.8125 
Q 44.234375 56.546875 37.515625 44.484375 
Q 30.8125 32.421875 27.15625 19.671875 
Q 24.515625 10.6875 23.78125 0 
L 14.75 0 
Q 14.890625 8.453125 18.0625 20.40625 
Q 21.234375 32.375 27.171875 43.484375 
Q 33.109375 54.59375 39.796875 62.203125 
z
" id="ArialMT-37"/>
      </defs>
      <g style="fill:#262626;" transform="translate(351.043862 25.515625)scale(0.1 -0.1)">
       <use xlink:href="#ArialMT-37"/>
      </g>
     </g>
    </g>
    <g id="text_9">
     <!-- Count -->
     <defs>
      <path d="M 58.796875 25.09375 
L 68.265625 22.703125 
Q 65.28125 11.03125 57.546875 4.90625 
Q 49.8125 -1.21875 38.625 -1.21875 
Q 27.046875 -1.21875 19.796875 3.484375 
Q 12.546875 8.203125 8.765625 17.140625 
Q 4.984375 26.078125 4.984375 36.328125 
Q 4.984375 47.515625 9.25 55.828125 
Q 13.53125 64.15625 21.40625 68.46875 
Q 29.296875 72.796875 38.765625 72.796875 
Q 49.515625 72.796875 56.828125 67.328125 
Q 64.15625 61.859375 67.046875 51.953125 
L 57.71875 49.75 
Q 55.21875 57.5625 50.484375 61.125 
Q 45.75 64.703125 38.578125 64.703125 
Q 30.328125 64.703125 24.78125 60.734375 
Q 19.234375 56.78125 16.984375 50.109375 
Q 14.75 43.453125 14.75 36.375 
Q 14.75 27.25 17.40625 20.4375 
Q 20.0625 13.625 25.671875 10.25 
Q 31.296875 6.890625 37.84375 6.890625 
Q 45.796875 6.890625 51.3125 11.46875 
Q 56.84375 16.0625 58.796875 25.09375 
z
" id="ArialMT-43"/>
      <path d="M 3.328125 25.921875 
Q 3.328125 40.328125 11.328125 47.265625 
Q 18.015625 53.03125 27.640625 53.03125 
Q 38.328125 53.03125 45.109375 46.015625 
Q 51.90625 39.015625 51.90625 26.65625 
Q 51.90625 16.65625 48.90625 10.90625 
Q 45.90625 5.171875 40.15625 2 
Q 34.421875 -1.171875 27.640625 -1.171875 
Q 16.75 -1.171875 10.03125 5.8125 
Q 3.328125 12.796875 3.328125 25.921875 
z
M 12.359375 25.921875 
Q 12.359375 15.96875 16.703125 11.015625 
Q 21.046875 6.0625 27.640625 6.0625 
Q 34.1875 6.0625 38.53125 11.03125 
Q 42.875 16.015625 42.875 26.21875 
Q 42.875 35.84375 38.5 40.796875 
Q 34.125 45.75 27.640625 45.75 
Q 21.046875 45.75 16.703125 40.8125 
Q 12.359375 35.890625 12.359375 25.921875 
z
" id="ArialMT-6f"/>
      <path d="M 40.578125 0 
L 40.578125 7.625 
Q 34.515625 -1.171875 24.125 -1.171875 
Q 19.53125 -1.171875 15.546875 0.578125 
Q 11.578125 2.34375 9.640625 5 
Q 7.71875 7.671875 6.9375 11.53125 
Q 6.390625 14.109375 6.390625 19.734375 
L 6.390625 51.859375 
L 15.1875 51.859375 
L 15.1875 23.09375 
Q 15.1875 16.21875 15.71875 13.8125 
Q 16.546875 10.359375 19.234375 8.375 
Q 21.921875 6.390625 25.875 6.390625 
Q 29.828125 6.390625 33.296875 8.421875 
Q 36.765625 10.453125 38.203125 13.9375 
Q 39.65625 17.4375 39.65625 24.078125 
L 39.65625 51.859375 
L 48.4375 51.859375 
L 48.4375 0 
z
" id="ArialMT-75"/>
      <path d="M 6.59375 0 
L 6.59375 51.859375 
L 14.5 51.859375 
L 14.5 44.484375 
Q 20.21875 53.03125 31 53.03125 
Q 35.6875 53.03125 39.625 51.34375 
Q 43.5625 49.65625 45.515625 46.921875 
Q 47.46875 44.1875 48.25 40.4375 
Q 48.734375 37.984375 48.734375 31.890625 
L 48.734375 0 
L 39.9375 0 
L 39.9375 31.546875 
Q 39.9375 36.921875 38.90625 39.578125 
Q 37.890625 42.234375 35.28125 43.8125 
Q 32.671875 45.40625 29.15625 45.40625 
Q 23.53125 45.40625 19.453125 41.84375 
Q 15.375 38.28125 15.375 28.328125 
L 15.375 0 
z
" id="ArialMT-6e"/>
      <path d="M 25.78125 7.859375 
L 27.046875 0.09375 
Q 23.34375 -0.6875 20.40625 -0.6875 
Q 15.625 -0.6875 12.984375 0.828125 
Q 10.359375 2.34375 9.28125 4.8125 
Q 8.203125 7.28125 8.203125 15.1875 
L 8.203125 45.015625 
L 1.765625 45.015625 
L 1.765625 51.859375 
L 8.203125 51.859375 
L 8.203125 64.703125 
L 16.9375 69.96875 
L 16.9375 51.859375 
L 25.78125 51.859375 
L 25.78125 45.015625 
L 16.9375 45.015625 
L 16.9375 14.703125 
Q 16.9375 10.9375 17.40625 9.859375 
Q 17.875 8.796875 18.921875 8.15625 
Q 19.96875 7.515625 21.921875 7.515625 
Q 23.390625 7.515625 25.78125 7.859375 
z
" id="ArialMT-74"/>
     </defs>
     <g style="fill:#262626;" transform="translate(189.025781 14.357812)scale(0.1 -0.1)">
      <use xlink:href="#ArialMT-43"/>
      <use x="72.216797" xlink:href="#ArialMT-6f"/>
      <use x="127.832031" xlink:href="#ArialMT-75"/>
      <use x="183.447266" xlink:href="#ArialMT-6e"/>
      <use x="239.0625" xlink:href="#ArialMT-74"/>
     </g>
    </g>
   </g>
   <g id="matplotlib.axis_2">
    <g id="ytick_1">
     <g id="line2d_9"/>
     <g id="text_10">
      <!-- 1 -->
      <g style="fill:#262626;" transform="translate(25.90625 49.702031)scale(0.1 -0.1)">
       <use xlink:href="#ArialMT-31"/>
      </g>
     </g>
    </g>
    <g id="ytick_2">
     <g id="line2d_10"/>
     <g id="text_11">
      <!-- 4 -->
      <g style="fill:#262626;" transform="translate(25.90625 79.942031)scale(0.1 -0.1)">
       <use xlink:href="#ArialMT-34"/>
      </g>
     </g>
    </g>
    <g id="ytick_3">
     <g id="line2d_11"/>
     <g id="text_12">
      <!-- 10 -->
      <g style="fill:#262626;" transform="translate(20.345313 110.182031)scale(0.1 -0.1)">
       <use xlink:href="#ArialMT-31"/>
       <use x="55.615234" xlink:href="#ArialMT-30"/>
      </g>
     </g>
    </g>
    <g id="ytick_4">
     <g id="line2d_12"/>
     <g id="text_13">
      <!-- 12 -->
      <g style="fill:#262626;" transform="translate(20.345313 140.422031)scale(0.1 -0.1)">
       <use xlink:href="#ArialMT-31"/>
       <use x="55.615234" xlink:href="#ArialMT-32"/>
      </g>
     </g>
    </g>
    <g id="ytick_5">
     <g id="line2d_13"/>
     <g id="text_14">
      <!-- 15 -->
      <g style="fill:#262626;" transform="translate(20.345313 170.662031)scale(0.1 -0.1)">
       <use xlink:href="#ArialMT-31"/>
       <use x="55.615234" xlink:href="#ArialMT-35"/>
      </g>
     </g>
    </g>
    <g id="ytick_6">
     <g id="line2d_14"/>
     <g id="text_15">
      <!-- 17 -->
      <g style="fill:#262626;" transform="translate(20.345313 200.902031)scale(0.1 -0.1)">
       <use xlink:href="#ArialMT-31"/>
       <use x="55.615234" xlink:href="#ArialMT-37"/>
      </g>
     </g>
    </g>
    <g id="ytick_7">
     <g id="line2d_15"/>
     <g id="text_16">
      <!-- 21 -->
      <g style="fill:#262626;" transform="translate(20.345313 231.142031)scale(0.1 -0.1)">
       <use xlink:href="#ArialMT-32"/>
       <use x="55.615234" xlink:href="#ArialMT-31"/>
      </g>
     </g>
    </g>
    <g id="ytick_8">
     <g id="line2d_16"/>
     <g id="text_17">
      <!-- 2 -->
      <g style="fill:#262626;" transform="translate(25.90625 261.382031)scale(0.1 -0.1)">
       <use xlink:href="#ArialMT-32"/>
      </g>
     </g>
    </g>
    <g id="ytick_9">
     <g id="line2d_17"/>
     <g id="text_18">
      <!-- 3 -->
      <g style="fill:#262626;" transform="translate(25.90625 291.622031)scale(0.1 -0.1)">
       <use xlink:href="#ArialMT-33"/>
      </g>
     </g>
    </g>
    <g id="ytick_10">
     <g id="line2d_18"/>
     <g id="text_19">
      <!-- 5 -->
      <g style="fill:#262626;" transform="translate(25.90625 321.862031)scale(0.1 -0.1)">
       <use xlink:href="#ArialMT-35"/>
      </g>
     </g>
    </g>
    <g id="ytick_11">
     <g id="line2d_19"/>
     <g id="text_20">
      <!-- 6 -->
      <g style="fill:#262626;" transform="translate(25.90625 352.102031)scale(0.1 -0.1)">
       <use xlink:href="#ArialMT-36"/>
      </g>
     </g>
    </g>
    <g id="ytick_12">
     <g id="line2d_20"/>
     <g id="text_21">
      <!-- 7 -->
      <g style="fill:#262626;" transform="translate(25.90625 382.342031)scale(0.1 -0.1)">
       <use xlink:href="#ArialMT-37"/>
      </g>
     </g>
    </g>
    <g id="ytick_13">
     <g id="line2d_21"/>
     <g id="text_22">
      <!-- 8 -->
      <defs>
       <path d="M 17.671875 38.8125 
Q 12.203125 40.828125 9.5625 44.53125 
Q 6.9375 48.25 6.9375 53.421875 
Q 6.9375 61.234375 12.546875 66.546875 
Q 18.171875 71.875 27.484375 71.875 
Q 36.859375 71.875 42.578125 66.421875 
Q 48.296875 60.984375 48.296875 53.171875 
Q 48.296875 48.1875 45.671875 44.5 
Q 43.0625 40.828125 37.75 38.8125 
Q 44.34375 36.671875 47.78125 31.875 
Q 51.21875 27.09375 51.21875 20.453125 
Q 51.21875 11.28125 44.71875 5.03125 
Q 38.234375 -1.21875 27.640625 -1.21875 
Q 17.046875 -1.21875 10.546875 5.046875 
Q 4.046875 11.328125 4.046875 20.703125 
Q 4.046875 27.6875 7.59375 32.390625 
Q 11.140625 37.109375 17.671875 38.8125 
z
M 15.921875 53.71875 
Q 15.921875 48.640625 19.1875 45.40625 
Q 22.46875 42.1875 27.6875 42.1875 
Q 32.765625 42.1875 36.015625 45.375 
Q 39.265625 48.578125 39.265625 53.21875 
Q 39.265625 58.0625 35.90625 61.359375 
Q 32.5625 64.65625 27.59375 64.65625 
Q 22.5625 64.65625 19.234375 61.421875 
Q 15.921875 58.203125 15.921875 53.71875 
z
M 13.09375 20.65625 
Q 13.09375 16.890625 14.875 13.375 
Q 16.65625 9.859375 20.171875 7.921875 
Q 23.6875 6 27.734375 6 
Q 34.03125 6 38.125 10.046875 
Q 42.234375 14.109375 42.234375 20.359375 
Q 42.234375 26.703125 38.015625 30.859375 
Q 33.796875 35.015625 27.4375 35.015625 
Q 21.234375 35.015625 17.15625 30.90625 
Q 13.09375 26.8125 13.09375 20.65625 
z
" id="ArialMT-38"/>
      </defs>
      <g style="fill:#262626;" transform="translate(25.90625 412.582031)scale(0.1 -0.1)">
       <use xlink:href="#ArialMT-38"/>
      </g>
     </g>
    </g>
    <g id="ytick_14">
     <g id="line2d_22"/>
     <g id="text_23">
      <!-- 9 -->
      <defs>
       <path d="M 5.46875 16.546875 
L 13.921875 17.328125 
Q 14.984375 11.375 18.015625 8.6875 
Q 21.046875 6 25.78125 6 
Q 29.828125 6 32.875 7.859375 
Q 35.9375 9.71875 37.890625 12.8125 
Q 39.84375 15.921875 41.15625 21.1875 
Q 42.484375 26.46875 42.484375 31.9375 
Q 42.484375 32.515625 42.4375 33.6875 
Q 39.796875 29.5 35.234375 26.875 
Q 30.671875 24.265625 25.34375 24.265625 
Q 16.453125 24.265625 10.296875 30.703125 
Q 4.15625 37.15625 4.15625 47.703125 
Q 4.15625 58.59375 10.578125 65.234375 
Q 17 71.875 26.65625 71.875 
Q 33.640625 71.875 39.421875 68.109375 
Q 45.21875 64.359375 48.21875 57.390625 
Q 51.21875 50.4375 51.21875 37.25 
Q 51.21875 23.53125 48.234375 15.40625 
Q 45.265625 7.28125 39.375 3.03125 
Q 33.5 -1.21875 25.59375 -1.21875 
Q 17.1875 -1.21875 11.859375 3.4375 
Q 6.546875 8.109375 5.46875 16.546875 
z
M 41.453125 48.140625 
Q 41.453125 55.71875 37.421875 60.15625 
Q 33.40625 64.59375 27.734375 64.59375 
Q 21.875 64.59375 17.53125 59.8125 
Q 13.1875 55.03125 13.1875 47.40625 
Q 13.1875 40.578125 17.3125 36.296875 
Q 21.4375 32.03125 27.484375 32.03125 
Q 33.59375 32.03125 37.515625 36.296875 
Q 41.453125 40.578125 41.453125 48.140625 
z
" id="ArialMT-39"/>
      </defs>
      <g style="fill:#262626;" transform="translate(25.90625 442.822031)scale(0.1 -0.1)">
       <use xlink:href="#ArialMT-39"/>
      </g>
     </g>
    </g>
    <g id="ytick_15">
     <g id="line2d_23"/>
     <g id="text_24">
      <!-- 11 -->
      <g style="fill:#262626;" transform="translate(20.35625 473.062031)scale(0.1 -0.1)">
       <use xlink:href="#ArialMT-31"/>
       <use x="55.505859" xlink:href="#ArialMT-31"/>
      </g>
     </g>
    </g>
    <g id="ytick_16">
     <g id="line2d_24"/>
     <g id="text_25">
      <!-- 13 -->
      <g style="fill:#262626;" transform="translate(20.345313 503.302031)scale(0.1 -0.1)">
       <use xlink:href="#ArialMT-31"/>
       <use x="55.615234" xlink:href="#ArialMT-33"/>
      </g>
     </g>
    </g>
    <g id="ytick_17">
     <g id="line2d_25"/>
     <g id="text_26">
      <!-- 14 -->
      <g style="fill:#262626;" transform="translate(20.345313 533.542031)scale(0.1 -0.1)">
       <use xlink:href="#ArialMT-31"/>
       <use x="55.615234" xlink:href="#ArialMT-34"/>
      </g>
     </g>
    </g>
    <g id="ytick_18">
     <g id="line2d_26"/>
     <g id="text_27">
      <!-- 16 -->
      <g style="fill:#262626;" transform="translate(20.345313 563.782031)scale(0.1 -0.1)">
       <use xlink:href="#ArialMT-31"/>
       <use x="55.615234" xlink:href="#ArialMT-36"/>
      </g>
     </g>
    </g>
    <g id="ytick_19">
     <g id="line2d_27"/>
     <g id="text_28">
      <!-- 18 -->
      <g style="fill:#262626;" transform="translate(20.345313 594.022031)scale(0.1 -0.1)">
       <use xlink:href="#ArialMT-31"/>
       <use x="55.615234" xlink:href="#ArialMT-38"/>
      </g>
     </g>
    </g>
    <g id="ytick_20">
     <g id="line2d_28"/>
     <g id="text_29">
      <!-- 19 -->
      <g style="fill:#262626;" transform="translate(20.345313 624.262031)scale(0.1 -0.1)">
       <use xlink:href="#ArialMT-31"/>
       <use x="55.615234" xlink:href="#ArialMT-39"/>
      </g>
     </g>
    </g>
    <g id="ytick_21">
     <g id="line2d_29"/>
     <g id="text_30">
      <!-- 20 -->
      <g style="fill:#262626;" transform="translate(20.345313 654.502031)scale(0.1 -0.1)">
       <use xlink:href="#ArialMT-32"/>
       <use x="55.615234" xlink:href="#ArialMT-30"/>
      </g>
     </g>
    </g>
    <g id="ytick_22">
     <g id="line2d_30"/>
     <g id="text_31">
      <!-- 22 -->
      <g style="fill:#262626;" transform="translate(20.345313 684.742031)scale(0.1 -0.1)">
       <use xlink:href="#ArialMT-32"/>
       <use x="55.615234" xlink:href="#ArialMT-32"/>
      </g>
     </g>
    </g>
    <g id="text_32">
     <!-- Article -->
     <defs>
      <path d="M -0.140625 0 
L 27.34375 71.578125 
L 37.546875 71.578125 
L 66.84375 0 
L 56.0625 0 
L 47.703125 21.6875 
L 17.78125 21.6875 
L 9.90625 0 
z
M 20.515625 29.390625 
L 44.78125 29.390625 
L 37.3125 49.21875 
Q 33.890625 58.25 32.234375 64.0625 
Q 30.859375 57.171875 28.375 50.390625 
z
" id="ArialMT-41"/>
      <path d="M 6.5 0 
L 6.5 51.859375 
L 14.40625 51.859375 
L 14.40625 44 
Q 17.4375 49.515625 20 51.265625 
Q 22.5625 53.03125 25.640625 53.03125 
Q 30.078125 53.03125 34.671875 50.203125 
L 31.640625 42.046875 
Q 28.421875 43.953125 25.203125 43.953125 
Q 22.3125 43.953125 20.015625 42.21875 
Q 17.71875 40.484375 16.75 37.40625 
Q 15.28125 32.71875 15.28125 27.15625 
L 15.28125 0 
z
" id="ArialMT-72"/>
      <path d="M 6.640625 61.46875 
L 6.640625 71.578125 
L 15.4375 71.578125 
L 15.4375 61.46875 
z
M 6.640625 0 
L 6.640625 51.859375 
L 15.4375 51.859375 
L 15.4375 0 
z
" id="ArialMT-69"/>
      <path d="M 40.4375 19 
L 49.078125 17.875 
Q 47.65625 8.9375 41.8125 3.875 
Q 35.984375 -1.171875 27.484375 -1.171875 
Q 16.84375 -1.171875 10.375 5.78125 
Q 3.90625 12.75 3.90625 25.734375 
Q 3.90625 34.125 6.6875 40.421875 
Q 9.46875 46.734375 15.15625 49.875 
Q 20.84375 53.03125 27.546875 53.03125 
Q 35.984375 53.03125 41.359375 48.75 
Q 46.734375 44.484375 48.25 36.625 
L 39.703125 35.296875 
Q 38.484375 40.53125 35.375 43.15625 
Q 32.28125 45.796875 27.875 45.796875 
Q 21.234375 45.796875 17.078125 41.03125 
Q 12.9375 36.28125 12.9375 25.984375 
Q 12.9375 15.53125 16.9375 10.796875 
Q 20.953125 6.0625 27.390625 6.0625 
Q 32.5625 6.0625 36.03125 9.234375 
Q 39.5 12.40625 40.4375 19 
z
" id="ArialMT-63"/>
      <path d="M 6.390625 0 
L 6.390625 71.578125 
L 15.1875 71.578125 
L 15.1875 0 
z
" id="ArialMT-6c"/>
      <path d="M 42.09375 16.703125 
L 51.171875 15.578125 
Q 49.03125 7.625 43.21875 3.21875 
Q 37.40625 -1.171875 28.375 -1.171875 
Q 17 -1.171875 10.328125 5.828125 
Q 3.65625 12.84375 3.65625 25.484375 
Q 3.65625 38.578125 10.390625 45.796875 
Q 17.140625 53.03125 27.875 53.03125 
Q 38.28125 53.03125 44.875 45.953125 
Q 51.46875 38.875 51.46875 26.03125 
Q 51.46875 25.25 51.421875 23.6875 
L 12.75 23.6875 
Q 13.234375 15.140625 17.578125 10.59375 
Q 21.921875 6.0625 28.421875 6.0625 
Q 33.25 6.0625 36.671875 8.59375 
Q 40.09375 11.140625 42.09375 16.703125 
z
M 13.234375 30.90625 
L 42.1875 30.90625 
Q 41.609375 37.453125 38.875 40.71875 
Q 34.671875 45.796875 27.984375 45.796875 
Q 21.921875 45.796875 17.796875 41.75 
Q 13.671875 37.703125 13.234375 30.90625 
z
" id="ArialMT-65"/>
     </defs>
     <g style="fill:#262626;" transform="translate(14.357813 377.534531)rotate(-90)scale(0.1 -0.1)">
      <use xlink:href="#ArialMT-41"/>
      <use x="66.699219" xlink:href="#ArialMT-72"/>
      <use x="100" xlink:href="#ArialMT-74"/>
      <use x="127.783203" xlink:href="#ArialMT-69"/>
      <use x="150" xlink:href="#ArialMT-63"/>
      <use x="200" xlink:href="#ArialMT-6c"/>
      <use x="222.216797" xlink:href="#ArialMT-65"/>
     </g>
    </g>
   </g>
   <g id="patch_3">
    <path clip-path="url(#p3cdb68d034)" d="M 34.967188 38.563125 
L 171.620249 38.563125 
L 171.620249 43.603125 
L 34.967188 43.603125 
z
" style="fill:#1f77b4;"/>
   </g>
   <g id="patch_4">
    <path clip-path="url(#p3cdb68d034)" d="M 34.967188 68.803125 
L 308.27331 68.803125 
L 308.27331 73.843125 
L 34.967188 73.843125 
z
" style="fill:#1f77b4;"/>
   </g>
   <g id="patch_5">
    <path clip-path="url(#p3cdb68d034)" d="M 34.967188 99.043125 
L 80.518208 99.043125 
L 80.518208 104.083125 
L 34.967188 104.083125 
z
" style="fill:#1f77b4;"/>
   </g>
   <g id="patch_6">
    <path clip-path="url(#p3cdb68d034)" d="M 34.967188 129.283125 
L 126.069228 129.283125 
L 126.069228 134.323125 
L 34.967188 134.323125 
z
" style="fill:#1f77b4;"/>
   </g>
   <g id="patch_7">
    <path clip-path="url(#p3cdb68d034)" d="M 34.967188 159.523125 
L 80.518208 159.523125 
L 80.518208 164.563125 
L 34.967188 164.563125 
z
" style="fill:#1f77b4;"/>
   </g>
   <g id="patch_8">
    <path clip-path="url(#p3cdb68d034)" d="M 34.967188 189.763125 
L 217.171269 189.763125 
L 217.171269 194.803125 
L 34.967188 194.803125 
z
" style="fill:#1f77b4;"/>
   </g>
   <g id="patch_9">
    <path clip-path="url(#p3cdb68d034)" d="M 34.967188 220.003125 
L 80.518208 220.003125 
L 80.518208 225.043125 
L 34.967188 225.043125 
z
" style="fill:#1f77b4;"/>
   </g>
   <g id="patch_10">
    <path clip-path="url(#p3cdb68d034)" d="M 34.967188 250.243125 
L 171.620249 250.243125 
L 171.620249 255.283125 
L 34.967188 255.283125 
z
" style="fill:#1f77b4;"/>
   </g>
   <g id="patch_11">
    <path clip-path="url(#p3cdb68d034)" d="M 34.967188 280.483125 
L 80.518208 280.483125 
L 80.518208 285.523125 
L 34.967188 285.523125 
z
" style="fill:#1f77b4;"/>
   </g>
   <g id="patch_12">
    <path clip-path="url(#p3cdb68d034)" d="M 34.967188 310.723125 
L 171.620249 310.723125 
L 171.620249 315.763125 
L 34.967188 315.763125 
z
" style="fill:#1f77b4;"/>
   </g>
   <g id="patch_13">
    <path clip-path="url(#p3cdb68d034)" d="M 34.967188 340.963125 
L 126.069228 340.963125 
L 126.069228 346.003125 
L 34.967188 346.003125 
z
" style="fill:#1f77b4;"/>
   </g>
   <g id="patch_14">
    <path clip-path="url(#p3cdb68d034)" d="M 34.967188 371.203125 
L 171.620249 371.203125 
L 171.620249 376.243125 
L 34.967188 376.243125 
z
" style="fill:#1f77b4;"/>
   </g>
   <g id="patch_15">
    <path clip-path="url(#p3cdb68d034)" d="M 34.967188 401.443125 
L 171.620249 401.443125 
L 171.620249 406.483125 
L 34.967188 406.483125 
z
" style="fill:#1f77b4;"/>
   </g>
   <g id="patch_16">
    <path clip-path="url(#p3cdb68d034)" d="M 34.967188 431.683125 
L 308.27331 431.683125 
L 308.27331 436.723125 
L 34.967188 436.723125 
z
" style="fill:#1f77b4;"/>
   </g>
   <g id="patch_17">
    <path clip-path="url(#p3cdb68d034)" d="M 34.967188 461.923125 
L 217.171269 461.923125 
L 217.171269 466.963125 
L 34.967188 466.963125 
z
" style="fill:#1f77b4;"/>
   </g>
   <g id="patch_18">
    <path clip-path="url(#p3cdb68d034)" d="M 34.967188 492.163125 
L 262.72229 492.163125 
L 262.72229 497.203125 
L 34.967188 497.203125 
z
" style="fill:#1f77b4;"/>
   </g>
   <g id="patch_19">
    <path clip-path="url(#p3cdb68d034)" d="M 34.967188 522.403125 
L 80.518208 522.403125 
L 80.518208 527.443125 
L 34.967188 527.443125 
z
" style="fill:#1f77b4;"/>
   </g>
   <g id="patch_20">
    <path clip-path="url(#p3cdb68d034)" d="M 34.967188 552.643125 
L 217.171269 552.643125 
L 217.171269 557.683125 
L 34.967188 557.683125 
z
" style="fill:#1f77b4;"/>
   </g>
   <g id="patch_21">
    <path clip-path="url(#p3cdb68d034)" d="M 34.967188 582.883125 
L 262.72229 582.883125 
L 262.72229 587.923125 
L 34.967188 587.923125 
z
" style="fill:#1f77b4;"/>
   </g>
   <g id="patch_22">
    <path clip-path="url(#p3cdb68d034)" d="M 34.967188 613.123125 
L 308.27331 613.123125 
L 308.27331 618.163125 
L 34.967188 618.163125 
z
" style="fill:#1f77b4;"/>
   </g>
   <g id="patch_23">
    <path clip-path="url(#p3cdb68d034)" d="M 34.967188 643.363125 
L 171.620249 643.363125 
L 171.620249 648.403125 
L 34.967188 648.403125 
z
" style="fill:#1f77b4;"/>
   </g>
   <g id="patch_24">
    <path clip-path="url(#p3cdb68d034)" d="M 34.967188 673.603125 
L 126.069228 673.603125 
L 126.069228 678.643125 
L 34.967188 678.643125 
z
" style="fill:#1f77b4;"/>
   </g>
   <g id="patch_25">
    <path clip-path="url(#p3cdb68d034)" d="M 34.967188 43.603125 
L 171.620249 43.603125 
L 171.620249 48.643125 
L 34.967188 48.643125 
z
" style="fill:#ff7f0e;"/>
   </g>
   <g id="patch_26">
    <path clip-path="url(#p3cdb68d034)" d="M 34.967188 73.843125 
L 171.620249 73.843125 
L 171.620249 78.883125 
L 34.967188 78.883125 
z
" style="fill:#ff7f0e;"/>
   </g>
   <g id="patch_27">
    <path clip-path="url(#p3cdb68d034)" d="M 34.967188 104.083125 
L 34.967188 104.083125 
L 34.967188 109.123125 
L 34.967188 109.123125 
z
" style="fill:#ff7f0e;"/>
   </g>
   <g id="patch_28">
    <path clip-path="url(#p3cdb68d034)" d="M 34.967188 134.323125 
L 262.72229 134.323125 
L 262.72229 139.363125 
L 34.967188 139.363125 
z
" style="fill:#ff7f0e;"/>
   </g>
   <g id="patch_29">
    <path clip-path="url(#p3cdb68d034)" d="M 34.967188 164.563125 
L 171.620249 164.563125 
L 171.620249 169.603125 
L 34.967188 169.603125 
z
" style="fill:#ff7f0e;"/>
   </g>
   <g id="patch_30">
    <path clip-path="url(#p3cdb68d034)" d="M 34.967188 194.803125 
L 308.27331 194.803125 
L 308.27331 199.843125 
L 34.967188 199.843125 
z
" style="fill:#ff7f0e;"/>
   </g>
   <g id="patch_31">
    <path clip-path="url(#p3cdb68d034)" d="M 34.967188 225.043125 
L 80.518208 225.043125 
L 80.518208 230.083125 
L 34.967188 230.083125 
z
" style="fill:#ff7f0e;"/>
   </g>
   <g id="patch_32">
    <path clip-path="url(#p3cdb68d034)" d="M 34.967188 255.283125 
L 126.069228 255.283125 
L 126.069228 260.323125 
L 34.967188 260.323125 
z
" style="fill:#ff7f0e;"/>
   </g>
   <g id="patch_33">
    <path clip-path="url(#p3cdb68d034)" d="M 34.967188 285.523125 
L 80.518208 285.523125 
L 80.518208 290.563125 
L 34.967188 290.563125 
z
" style="fill:#ff7f0e;"/>
   </g>
   <g id="patch_34">
    <path clip-path="url(#p3cdb68d034)" d="M 34.967188 315.763125 
L 126.069228 315.763125 
L 126.069228 320.803125 
L 34.967188 320.803125 
z
" style="fill:#ff7f0e;"/>
   </g>
   <g id="patch_35">
    <path clip-path="url(#p3cdb68d034)" d="M 34.967188 346.003125 
L 171.620249 346.003125 
L 171.620249 351.043125 
L 34.967188 351.043125 
z
" style="fill:#ff7f0e;"/>
   </g>
   <g id="patch_36">
    <path clip-path="url(#p3cdb68d034)" d="M 34.967188 376.243125 
L 126.069228 376.243125 
L 126.069228 381.283125 
L 34.967188 381.283125 
z
" style="fill:#ff7f0e;"/>
   </g>
   <g id="patch_37">
    <path clip-path="url(#p3cdb68d034)" d="M 34.967188 406.483125 
L 171.620249 406.483125 
L 171.620249 411.523125 
L 34.967188 411.523125 
z
" style="fill:#ff7f0e;"/>
   </g>
   <g id="patch_38">
    <path clip-path="url(#p3cdb68d034)" d="M 34.967188 436.723125 
L 171.620249 436.723125 
L 171.620249 441.763125 
L 34.967188 441.763125 
z
" style="fill:#ff7f0e;"/>
   </g>
   <g id="patch_39">
    <path clip-path="url(#p3cdb68d034)" d="M 34.967188 466.963125 
L 126.069228 466.963125 
L 126.069228 472.003125 
L 34.967188 472.003125 
z
" style="fill:#ff7f0e;"/>
   </g>
   <g id="patch_40">
    <path clip-path="url(#p3cdb68d034)" d="M 34.967188 497.203125 
L 80.518208 497.203125 
L 80.518208 502.243125 
L 34.967188 502.243125 
z
" style="fill:#ff7f0e;"/>
   </g>
   <g id="patch_41">
    <path clip-path="url(#p3cdb68d034)" d="M 34.967188 527.443125 
L 80.518208 527.443125 
L 80.518208 532.483125 
L 34.967188 532.483125 
z
" style="fill:#ff7f0e;"/>
   </g>
   <g id="patch_42">
    <path clip-path="url(#p3cdb68d034)" d="M 34.967188 557.683125 
L 34.967188 557.683125 
L 34.967188 562.723125 
L 34.967188 562.723125 
z
" style="fill:#ff7f0e;"/>
   </g>
   <g id="patch_43">
    <path clip-path="url(#p3cdb68d034)" d="M 34.967188 587.923125 
L 353.82433 587.923125 
L 353.82433 592.963125 
L 34.967188 592.963125 
z
" style="fill:#ff7f0e;"/>
   </g>
   <g id="patch_44">
    <path clip-path="url(#p3cdb68d034)" d="M 34.967188 618.163125 
L 217.171269 618.163125 
L 217.171269 623.203125 
L 34.967188 623.203125 
z
" style="fill:#ff7f0e;"/>
   </g>
   <g id="patch_45">
    <path clip-path="url(#p3cdb68d034)" d="M 34.967188 648.403125 
L 34.967188 648.403125 
L 34.967188 653.443125 
L 34.967188 653.443125 
z
" style="fill:#ff7f0e;"/>
   </g>
   <g id="patch_46">
    <path clip-path="url(#p3cdb68d034)" d="M 34.967188 678.643125 
L 171.620249 678.643125 
L 171.620249 683.683125 
L 34.967188 683.683125 
z
" style="fill:#ff7f0e;"/>
   </g>
   <g id="patch_47">
    <path clip-path="url(#p3cdb68d034)" d="M 34.967188 48.643125 
L 217.171269 48.643125 
L 217.171269 53.683125 
L 34.967188 53.683125 
z
" style="fill:#2ca02c;"/>
   </g>
   <g id="patch_48">
    <path clip-path="url(#p3cdb68d034)" d="M 34.967188 78.883125 
L 217.171269 78.883125 
L 217.171269 83.923125 
L 34.967188 83.923125 
z
" style="fill:#2ca02c;"/>
   </g>
   <g id="patch_49">
    <path clip-path="url(#p3cdb68d034)" d="M 34.967188 109.123125 
L 80.518208 109.123125 
L 80.518208 114.163125 
L 34.967188 114.163125 
z
" style="fill:#2ca02c;"/>
   </g>
   <g id="patch_50">
    <path clip-path="url(#p3cdb68d034)" d="M 34.967188 139.363125 
L 126.069228 139.363125 
L 126.069228 144.403125 
L 34.967188 144.403125 
z
" style="fill:#2ca02c;"/>
   </g>
   <g id="patch_51">
    <path clip-path="url(#p3cdb68d034)" d="M 34.967188 169.603125 
L 80.518208 169.603125 
L 80.518208 174.643125 
L 34.967188 174.643125 
z
" style="fill:#2ca02c;"/>
   </g>
   <g id="patch_52">
    <path clip-path="url(#p3cdb68d034)" d="M 34.967188 199.843125 
L 217.171269 199.843125 
L 217.171269 204.883125 
L 34.967188 204.883125 
z
" style="fill:#2ca02c;"/>
   </g>
   <g id="patch_53">
    <path clip-path="url(#p3cdb68d034)" d="M 34.967188 230.083125 
L 34.967188 230.083125 
L 34.967188 235.123125 
L 34.967188 235.123125 
z
" style="fill:#2ca02c;"/>
   </g>
   <g id="patch_54">
    <path clip-path="url(#p3cdb68d034)" d="M 34.967188 260.323125 
L 126.069228 260.323125 
L 126.069228 265.363125 
L 34.967188 265.363125 
z
" style="fill:#2ca02c;"/>
   </g>
   <g id="patch_55">
    <path clip-path="url(#p3cdb68d034)" d="M 34.967188 290.563125 
L 171.620249 290.563125 
L 171.620249 295.603125 
L 34.967188 295.603125 
z
" style="fill:#2ca02c;"/>
   </g>
   <g id="patch_56">
    <path clip-path="url(#p3cdb68d034)" d="M 34.967188 320.803125 
L 171.620249 320.803125 
L 171.620249 325.843125 
L 34.967188 325.843125 
z
" style="fill:#2ca02c;"/>
   </g>
   <g id="patch_57">
    <path clip-path="url(#p3cdb68d034)" d="M 34.967188 351.043125 
L 308.27331 351.043125 
L 308.27331 356.083125 
L 34.967188 356.083125 
z
" style="fill:#2ca02c;"/>
   </g>
   <g id="patch_58">
    <path clip-path="url(#p3cdb68d034)" d="M 34.967188 381.283125 
L 34.967188 381.283125 
L 34.967188 386.323125 
L 34.967188 386.323125 
z
" style="fill:#2ca02c;"/>
   </g>
   <g id="patch_59">
    <path clip-path="url(#p3cdb68d034)" d="M 34.967188 411.523125 
L 217.171269 411.523125 
L 217.171269 416.563125 
L 34.967188 416.563125 
z
" style="fill:#2ca02c;"/>
   </g>
   <g id="patch_60">
    <path clip-path="url(#p3cdb68d034)" d="M 34.967188 441.763125 
L 262.72229 441.763125 
L 262.72229 446.803125 
L 34.967188 446.803125 
z
" style="fill:#2ca02c;"/>
   </g>
   <g id="patch_61">
    <path clip-path="url(#p3cdb68d034)" d="M 34.967188 472.003125 
L 217.171269 472.003125 
L 217.171269 477.043125 
L 34.967188 477.043125 
z
" style="fill:#2ca02c;"/>
   </g>
   <g id="patch_62">
    <path clip-path="url(#p3cdb68d034)" d="M 34.967188 502.243125 
L 217.171269 502.243125 
L 217.171269 507.283125 
L 34.967188 507.283125 
z
" style="fill:#2ca02c;"/>
   </g>
   <g id="patch_63">
    <path clip-path="url(#p3cdb68d034)" d="M 34.967188 532.483125 
L 34.967188 532.483125 
L 34.967188 537.523125 
L 34.967188 537.523125 
z
" style="fill:#2ca02c;"/>
   </g>
   <g id="patch_64">
    <path clip-path="url(#p3cdb68d034)" d="M 34.967188 562.723125 
L 34.967188 562.723125 
L 34.967188 567.763125 
L 34.967188 567.763125 
z
" style="fill:#2ca02c;"/>
   </g>
   <g id="patch_65">
    <path clip-path="url(#p3cdb68d034)" d="M 34.967188 592.963125 
L 353.82433 592.963125 
L 353.82433 598.003125 
L 34.967188 598.003125 
z
" style="fill:#2ca02c;"/>
   </g>
   <g id="patch_66">
    <path clip-path="url(#p3cdb68d034)" d="M 34.967188 623.203125 
L 34.967188 623.203125 
L 34.967188 628.243125 
L 34.967188 628.243125 
z
" style="fill:#2ca02c;"/>
   </g>
   <g id="patch_67">
    <path clip-path="url(#p3cdb68d034)" d="M 34.967188 653.443125 
L 34.967188 653.443125 
L 34.967188 658.483125 
L 34.967188 658.483125 
z
" style="fill:#2ca02c;"/>
   </g>
   <g id="patch_68">
    <path clip-path="url(#p3cdb68d034)" d="M 34.967188 683.683125 
L 126.069228 683.683125 
L 126.069228 688.723125 
L 34.967188 688.723125 
z
" style="fill:#2ca02c;"/>
   </g>
   <g id="patch_69">
    <path d="M 34.967188 696.283125 
L 34.967188 31.003125 
" style="fill:none;stroke:#262626;stroke-linecap:square;stroke-linejoin:miter;stroke-width:1.25;"/>
   </g>
   <g id="patch_70">
    <path d="M 369.767188 696.283125 
L 369.767188 31.003125 
" style="fill:none;stroke:#262626;stroke-linecap:square;stroke-linejoin:miter;stroke-width:1.25;"/>
   </g>
   <g id="patch_71">
    <path d="M 34.967188 696.283125 
L 369.767188 696.283125 
" style="fill:none;stroke:#262626;stroke-linecap:square;stroke-linejoin:miter;stroke-width:1.25;"/>
   </g>
   <g id="patch_72">
    <path d="M 34.967188 31.003125 
L 369.767188 31.003125 
" style="fill:none;stroke:#262626;stroke-linecap:square;stroke-linejoin:miter;stroke-width:1.25;"/>
   </g>
   <g id="text_33">
    <!-- 3 -->
    <g style="fill:#262626;" transform="translate(171.620249 43.15125)scale(0.08 -0.08)">
     <use xlink:href="#ArialMT-33"/>
    </g>
   </g>
   <g id="text_34">
    <!-- 6 -->
    <g style="fill:#262626;" transform="translate(308.27331 73.39125)scale(0.08 -0.08)">
     <use xlink:href="#ArialMT-36"/>
    </g>
   </g>
   <g id="text_35">
    <!-- 1 -->
    <g style="fill:#262626;" transform="translate(80.518208 103.63125)scale(0.08 -0.08)">
     <use xlink:href="#ArialMT-31"/>
    </g>
   </g>
   <g id="text_36">
    <!-- 2 -->
    <g style="fill:#262626;" transform="translate(126.069228 133.87125)scale(0.08 -0.08)">
     <use xlink:href="#ArialMT-32"/>
    </g>
   </g>
   <g id="text_37">
    <!-- 1 -->
    <g style="fill:#262626;" transform="translate(80.518208 164.11125)scale(0.08 -0.08)">
     <use xlink:href="#ArialMT-31"/>
    </g>
   </g>
   <g id="text_38">
    <!-- 4 -->
    <g style="fill:#262626;" transform="translate(217.171269 194.35125)scale(0.08 -0.08)">
     <use xlink:href="#ArialMT-34"/>
    </g>
   </g>
   <g id="text_39">
    <!-- 1 -->
    <g style="fill:#262626;" transform="translate(80.518208 224.59125)scale(0.08 -0.08)">
     <use xlink:href="#ArialMT-31"/>
    </g>
   </g>
   <g id="text_40">
    <!-- 3 -->
    <g style="fill:#262626;" transform="translate(171.620249 254.83125)scale(0.08 -0.08)">
     <use xlink:href="#ArialMT-33"/>
    </g>
   </g>
   <g id="text_41">
    <!-- 1 -->
    <g style="fill:#262626;" transform="translate(80.518208 285.07125)scale(0.08 -0.08)">
     <use xlink:href="#ArialMT-31"/>
    </g>
   </g>
   <g id="text_42">
    <!-- 3 -->
    <g style="fill:#262626;" transform="translate(171.620249 315.31125)scale(0.08 -0.08)">
     <use xlink:href="#ArialMT-33"/>
    </g>
   </g>
   <g id="text_43">
    <!-- 2 -->
    <g style="fill:#262626;" transform="translate(126.069228 345.55125)scale(0.08 -0.08)">
     <use xlink:href="#ArialMT-32"/>
    </g>
   </g>
   <g id="text_44">
    <!-- 3 -->
    <g style="fill:#262626;" transform="translate(171.620249 375.79125)scale(0.08 -0.08)">
     <use xlink:href="#ArialMT-33"/>
    </g>
   </g>
   <g id="text_45">
    <!-- 3 -->
    <g style="fill:#262626;" transform="translate(171.620249 406.03125)scale(0.08 -0.08)">
     <use xlink:href="#ArialMT-33"/>
    </g>
   </g>
   <g id="text_46">
    <!-- 6 -->
    <g style="fill:#262626;" transform="translate(308.27331 436.27125)scale(0.08 -0.08)">
     <use xlink:href="#ArialMT-36"/>
    </g>
   </g>
   <g id="text_47">
    <!-- 4 -->
    <g style="fill:#262626;" transform="translate(217.171269 466.51125)scale(0.08 -0.08)">
     <use xlink:href="#ArialMT-34"/>
    </g>
   </g>
   <g id="text_48">
    <!-- 5 -->
    <g style="fill:#262626;" transform="translate(262.72229 496.75125)scale(0.08 -0.08)">
     <use xlink:href="#ArialMT-35"/>
    </g>
   </g>
   <g id="text_49">
    <!-- 1 -->
    <g style="fill:#262626;" transform="translate(80.518208 526.99125)scale(0.08 -0.08)">
     <use xlink:href="#ArialMT-31"/>
    </g>
   </g>
   <g id="text_50">
    <!-- 4 -->
    <g style="fill:#262626;" transform="translate(217.171269 557.23125)scale(0.08 -0.08)">
     <use xlink:href="#ArialMT-34"/>
    </g>
   </g>
   <g id="text_51">
    <!-- 5 -->
    <g style="fill:#262626;" transform="translate(262.72229 587.47125)scale(0.08 -0.08)">
     <use xlink:href="#ArialMT-35"/>
    </g>
   </g>
   <g id="text_52">
    <!-- 6 -->
    <g style="fill:#262626;" transform="translate(308.27331 617.71125)scale(0.08 -0.08)">
     <use xlink:href="#ArialMT-36"/>
    </g>
   </g>
   <g id="text_53">
    <!-- 3 -->
    <g style="fill:#262626;" transform="translate(171.620249 647.95125)scale(0.08 -0.08)">
     <use xlink:href="#ArialMT-33"/>
    </g>
   </g>
   <g id="text_54">
    <!-- 2 -->
    <g style="fill:#262626;" transform="translate(126.069228 678.19125)scale(0.08 -0.08)">
     <use xlink:href="#ArialMT-32"/>
    </g>
   </g>
   <g id="text_55">
    <!-- 3 -->
    <g style="fill:#262626;" transform="translate(171.620249 48.19125)scale(0.08 -0.08)">
     <use xlink:href="#ArialMT-33"/>
    </g>
   </g>
   <g id="text_56">
    <!-- 3 -->
    <g style="fill:#262626;" transform="translate(171.620249 78.43125)scale(0.08 -0.08)">
     <use xlink:href="#ArialMT-33"/>
    </g>
   </g>
   <g id="text_57">
    <!-- 0 -->
    <g style="fill:#262626;" transform="translate(34.967188 108.67125)scale(0.08 -0.08)">
     <use xlink:href="#ArialMT-30"/>
    </g>
   </g>
   <g id="text_58">
    <!-- 5 -->
    <g style="fill:#262626;" transform="translate(262.72229 138.91125)scale(0.08 -0.08)">
     <use xlink:href="#ArialMT-35"/>
    </g>
   </g>
   <g id="text_59">
    <!-- 3 -->
    <g style="fill:#262626;" transform="translate(171.620249 169.15125)scale(0.08 -0.08)">
     <use xlink:href="#ArialMT-33"/>
    </g>
   </g>
   <g id="text_60">
    <!-- 6 -->
    <g style="fill:#262626;" transform="translate(308.27331 199.39125)scale(0.08 -0.08)">
     <use xlink:href="#ArialMT-36"/>
    </g>
   </g>
   <g id="text_61">
    <!-- 1 -->
    <g style="fill:#262626;" transform="translate(80.518208 229.63125)scale(0.08 -0.08)">
     <use xlink:href="#ArialMT-31"/>
    </g>
   </g>
   <g id="text_62">
    <!-- 2 -->
    <g style="fill:#262626;" transform="translate(126.069228 259.87125)scale(0.08 -0.08)">
     <use xlink:href="#ArialMT-32"/>
    </g>
   </g>
   <g id="text_63">
    <!-- 1 -->
    <g style="fill:#262626;" transform="translate(80.518208 290.11125)scale(0.08 -0.08)">
     <use xlink:href="#ArialMT-31"/>
    </g>
   </g>
   <g id="text_64">
    <!-- 2 -->
    <g style="fill:#262626;" transform="translate(126.069228 320.35125)scale(0.08 -0.08)">
     <use xlink:href="#ArialMT-32"/>
    </g>
   </g>
   <g id="text_65">
    <!-- 3 -->
    <g style="fill:#262626;" transform="translate(171.620249 350.59125)scale(0.08 -0.08)">
     <use xlink:href="#ArialMT-33"/>
    </g>
   </g>
   <g id="text_66">
    <!-- 2 -->
    <g style="fill:#262626;" transform="translate(126.069228 380.83125)scale(0.08 -0.08)">
     <use xlink:href="#ArialMT-32"/>
    </g>
   </g>
   <g id="text_67">
    <!-- 3 -->
    <g style="fill:#262626;" transform="translate(171.620249 411.07125)scale(0.08 -0.08)">
     <use xlink:href="#ArialMT-33"/>
    </g>
   </g>
   <g id="text_68">
    <!-- 3 -->
    <g style="fill:#262626;" transform="translate(171.620249 441.31125)scale(0.08 -0.08)">
     <use xlink:href="#ArialMT-33"/>
    </g>
   </g>
   <g id="text_69">
    <!-- 2 -->
    <g style="fill:#262626;" transform="translate(126.069228 471.55125)scale(0.08 -0.08)">
     <use xlink:href="#ArialMT-32"/>
    </g>
   </g>
   <g id="text_70">
    <!-- 1 -->
    <g style="fill:#262626;" transform="translate(80.518208 501.79125)scale(0.08 -0.08)">
     <use xlink:href="#ArialMT-31"/>
    </g>
   </g>
   <g id="text_71">
    <!-- 1 -->
    <g style="fill:#262626;" transform="translate(80.518208 532.03125)scale(0.08 -0.08)">
     <use xlink:href="#ArialMT-31"/>
    </g>
   </g>
   <g id="text_72">
    <!-- 0 -->
    <g style="fill:#262626;" transform="translate(34.967188 562.27125)scale(0.08 -0.08)">
     <use xlink:href="#ArialMT-30"/>
    </g>
   </g>
   <g id="text_73">
    <!-- 7 -->
    <g style="fill:#262626;" transform="translate(353.82433 592.51125)scale(0.08 -0.08)">
     <use xlink:href="#ArialMT-37"/>
    </g>
   </g>
   <g id="text_74">
    <!-- 4 -->
    <g style="fill:#262626;" transform="translate(217.171269 622.75125)scale(0.08 -0.08)">
     <use xlink:href="#ArialMT-34"/>
    </g>
   </g>
   <g id="text_75">
    <!-- 0 -->
    <g style="fill:#262626;" transform="translate(34.967188 652.99125)scale(0.08 -0.08)">
     <use xlink:href="#ArialMT-30"/>
    </g>
   </g>
   <g id="text_76">
    <!-- 3 -->
    <g style="fill:#262626;" transform="translate(171.620249 683.23125)scale(0.08 -0.08)">
     <use xlink:href="#ArialMT-33"/>
    </g>
   </g>
   <g id="text_77">
    <!-- 4 -->
    <g style="fill:#262626;" transform="translate(217.171269 53.23125)scale(0.08 -0.08)">
     <use xlink:href="#ArialMT-34"/>
    </g>
   </g>
   <g id="text_78">
    <!-- 4 -->
    <g style="fill:#262626;" transform="translate(217.171269 83.47125)scale(0.08 -0.08)">
     <use xlink:href="#ArialMT-34"/>
    </g>
   </g>
   <g id="text_79">
    <!-- 1 -->
    <g style="fill:#262626;" transform="translate(80.518208 113.71125)scale(0.08 -0.08)">
     <use xlink:href="#ArialMT-31"/>
    </g>
   </g>
   <g id="text_80">
    <!-- 2 -->
    <g style="fill:#262626;" transform="translate(126.069228 143.95125)scale(0.08 -0.08)">
     <use xlink:href="#ArialMT-32"/>
    </g>
   </g>
   <g id="text_81">
    <!-- 1 -->
    <g style="fill:#262626;" transform="translate(80.518208 174.19125)scale(0.08 -0.08)">
     <use xlink:href="#ArialMT-31"/>
    </g>
   </g>
   <g id="text_82">
    <!-- 4 -->
    <g style="fill:#262626;" transform="translate(217.171269 204.43125)scale(0.08 -0.08)">
     <use xlink:href="#ArialMT-34"/>
    </g>
   </g>
   <g id="text_83">
    <!-- 0 -->
    <g style="fill:#262626;" transform="translate(34.967188 234.67125)scale(0.08 -0.08)">
     <use xlink:href="#ArialMT-30"/>
    </g>
   </g>
   <g id="text_84">
    <!-- 2 -->
    <g style="fill:#262626;" transform="translate(126.069228 264.91125)scale(0.08 -0.08)">
     <use xlink:href="#ArialMT-32"/>
    </g>
   </g>
   <g id="text_85">
    <!-- 3 -->
    <g style="fill:#262626;" transform="translate(171.620249 295.15125)scale(0.08 -0.08)">
     <use xlink:href="#ArialMT-33"/>
    </g>
   </g>
   <g id="text_86">
    <!-- 3 -->
    <g style="fill:#262626;" transform="translate(171.620249 325.39125)scale(0.08 -0.08)">
     <use xlink:href="#ArialMT-33"/>
    </g>
   </g>
   <g id="text_87">
    <!-- 6 -->
    <g style="fill:#262626;" transform="translate(308.27331 355.63125)scale(0.08 -0.08)">
     <use xlink:href="#ArialMT-36"/>
    </g>
   </g>
   <g id="text_88">
    <!-- 0 -->
    <g style="fill:#262626;" transform="translate(34.967188 385.87125)scale(0.08 -0.08)">
     <use xlink:href="#ArialMT-30"/>
    </g>
   </g>
   <g id="text_89">
    <!-- 4 -->
    <g style="fill:#262626;" transform="translate(217.171269 416.11125)scale(0.08 -0.08)">
     <use xlink:href="#ArialMT-34"/>
    </g>
   </g>
   <g id="text_90">
    <!-- 5 -->
    <g style="fill:#262626;" transform="translate(262.72229 446.35125)scale(0.08 -0.08)">
     <use xlink:href="#ArialMT-35"/>
    </g>
   </g>
   <g id="text_91">
    <!-- 4 -->
    <g style="fill:#262626;" transform="translate(217.171269 476.59125)scale(0.08 -0.08)">
     <use xlink:href="#ArialMT-34"/>
    </g>
   </g>
   <g id="text_92">
    <!-- 4 -->
    <g style="fill:#262626;" transform="translate(217.171269 506.83125)scale(0.08 -0.08)">
     <use xlink:href="#ArialMT-34"/>
    </g>
   </g>
   <g id="text_93">
    <!-- 0 -->
    <g style="fill:#262626;" transform="translate(34.967188 537.07125)scale(0.08 -0.08)">
     <use xlink:href="#ArialMT-30"/>
    </g>
   </g>
   <g id="text_94">
    <!-- 0 -->
    <g style="fill:#262626;" transform="translate(34.967188 567.31125)scale(0.08 -0.08)">
     <use xlink:href="#ArialMT-30"/>
    </g>
   </g>
   <g id="text_95">
    <!-- 7 -->
    <g style="fill:#262626;" transform="translate(353.82433 597.55125)scale(0.08 -0.08)">
     <use xlink:href="#ArialMT-37"/>
    </g>
   </g>
   <g id="text_96">
    <!-- 0 -->
    <g style="fill:#262626;" transform="translate(34.967188 627.79125)scale(0.08 -0.08)">
     <use xlink:href="#ArialMT-30"/>
    </g>
   </g>
   <g id="text_97">
    <!-- 0 -->
    <g style="fill:#262626;" transform="translate(34.967188 658.03125)scale(0.08 -0.08)">
     <use xlink:href="#ArialMT-30"/>
    </g>
   </g>
   <g id="text_98">
    <!-- 2 -->
    <g style="fill:#262626;" transform="translate(126.069228 688.27125)scale(0.08 -0.08)">
     <use xlink:href="#ArialMT-32"/>
    </g>
   </g>
   <g id="legend_1">
    <g id="patch_73">
     <path d="M 280.523438 657.005 
L 300.523438 657.005 
L 300.523438 650.005 
L 280.523438 650.005 
z
" style="fill:#1f77b4;"/>
    </g>
    <g id="text_99">
     <!-- Problem -->
     <defs>
      <path d="M 7.71875 0 
L 7.71875 71.578125 
L 34.71875 71.578125 
Q 41.84375 71.578125 45.609375 70.90625 
Q 50.875 70.015625 54.4375 67.546875 
Q 58.015625 65.09375 60.1875 60.640625 
Q 62.359375 56.203125 62.359375 50.875 
Q 62.359375 41.75 56.546875 35.421875 
Q 50.734375 29.109375 35.546875 29.109375 
L 17.1875 29.109375 
L 17.1875 0 
z
M 17.1875 37.546875 
L 35.6875 37.546875 
Q 44.875 37.546875 48.734375 40.96875 
Q 52.59375 44.390625 52.59375 50.59375 
Q 52.59375 55.078125 50.3125 58.265625 
Q 48.046875 61.46875 44.34375 62.5 
Q 41.9375 63.140625 35.5 63.140625 
L 17.1875 63.140625 
z
" id="ArialMT-50"/>
      <path d="M 14.703125 0 
L 6.546875 0 
L 6.546875 71.578125 
L 15.328125 71.578125 
L 15.328125 46.046875 
Q 20.90625 53.03125 29.546875 53.03125 
Q 34.328125 53.03125 38.59375 51.09375 
Q 42.875 49.171875 45.625 45.671875 
Q 48.390625 42.1875 49.953125 37.25 
Q 51.515625 32.328125 51.515625 26.703125 
Q 51.515625 13.375 44.921875 6.09375 
Q 38.328125 -1.171875 29.109375 -1.171875 
Q 19.921875 -1.171875 14.703125 6.5 
z
M 14.59375 26.3125 
Q 14.59375 17 17.140625 12.84375 
Q 21.296875 6.0625 28.375 6.0625 
Q 34.125 6.0625 38.328125 11.0625 
Q 42.53125 16.0625 42.53125 25.984375 
Q 42.53125 36.140625 38.5 40.96875 
Q 34.46875 45.796875 28.765625 45.796875 
Q 23 45.796875 18.796875 40.796875 
Q 14.59375 35.796875 14.59375 26.3125 
z
" id="ArialMT-62"/>
      <path d="M 6.59375 0 
L 6.59375 51.859375 
L 14.453125 51.859375 
L 14.453125 44.578125 
Q 16.890625 48.390625 20.9375 50.703125 
Q 25 53.03125 30.171875 53.03125 
Q 35.9375 53.03125 39.625 50.640625 
Q 43.3125 48.25 44.828125 43.953125 
Q 50.984375 53.03125 60.84375 53.03125 
Q 68.5625 53.03125 72.703125 48.75 
Q 76.859375 44.484375 76.859375 35.59375 
L 76.859375 0 
L 68.109375 0 
L 68.109375 32.671875 
Q 68.109375 37.9375 67.25 40.25 
Q 66.40625 42.578125 64.15625 43.984375 
Q 61.921875 45.40625 58.890625 45.40625 
Q 53.421875 45.40625 49.796875 41.765625 
Q 46.1875 38.140625 46.1875 30.125 
L 46.1875 0 
L 37.40625 0 
L 37.40625 33.6875 
Q 37.40625 39.546875 35.25 42.46875 
Q 33.109375 45.40625 28.21875 45.40625 
Q 24.515625 45.40625 21.359375 43.453125 
Q 18.21875 41.5 16.796875 37.734375 
Q 15.375 33.984375 15.375 26.90625 
L 15.375 0 
z
" id="ArialMT-6d"/>
     </defs>
     <g style="fill:#262626;" transform="translate(308.523438 657.005)scale(0.1 -0.1)">
      <use xlink:href="#ArialMT-50"/>
      <use x="66.699219" xlink:href="#ArialMT-72"/>
      <use x="100" xlink:href="#ArialMT-6f"/>
      <use x="155.615234" xlink:href="#ArialMT-62"/>
      <use x="211.230469" xlink:href="#ArialMT-6c"/>
      <use x="233.447266" xlink:href="#ArialMT-65"/>
      <use x="289.0625" xlink:href="#ArialMT-6d"/>
     </g>
    </g>
    <g id="patch_74">
     <path d="M 280.523438 671.150313 
L 300.523438 671.150313 
L 300.523438 664.150313 
L 280.523438 664.150313 
z
" style="fill:#ff7f0e;"/>
    </g>
    <g id="text_100">
     <!-- Assumption -->
     <defs>
      <path d="M 3.078125 15.484375 
L 11.765625 16.84375 
Q 12.5 11.625 15.84375 8.84375 
Q 19.1875 6.0625 25.203125 6.0625 
Q 31.25 6.0625 34.171875 8.515625 
Q 37.109375 10.984375 37.109375 14.3125 
Q 37.109375 17.28125 34.515625 19 
Q 32.71875 20.171875 25.53125 21.96875 
Q 15.875 24.421875 12.140625 26.203125 
Q 8.40625 27.984375 6.46875 31.125 
Q 4.546875 34.28125 4.546875 38.09375 
Q 4.546875 41.546875 6.125 44.5 
Q 7.71875 47.46875 10.453125 49.421875 
Q 12.5 50.921875 16.03125 51.96875 
Q 19.578125 53.03125 23.640625 53.03125 
Q 29.734375 53.03125 34.34375 51.265625 
Q 38.96875 49.515625 41.15625 46.5 
Q 43.359375 43.5 44.1875 38.484375 
L 35.59375 37.3125 
Q 35.015625 41.3125 32.203125 43.546875 
Q 29.390625 45.796875 24.265625 45.796875 
Q 18.21875 45.796875 15.625 43.796875 
Q 13.03125 41.796875 13.03125 39.109375 
Q 13.03125 37.40625 14.109375 36.03125 
Q 15.1875 34.625 17.484375 33.6875 
Q 18.796875 33.203125 25.25 31.453125 
Q 34.578125 28.953125 38.25 27.359375 
Q 41.9375 25.78125 44.03125 22.75 
Q 46.140625 19.734375 46.140625 15.234375 
Q 46.140625 10.84375 43.578125 6.953125 
Q 41.015625 3.078125 36.171875 0.953125 
Q 31.34375 -1.171875 25.25 -1.171875 
Q 15.140625 -1.171875 9.84375 3.03125 
Q 4.546875 7.234375 3.078125 15.484375 
z
" id="ArialMT-73"/>
      <path d="M 6.59375 -19.875 
L 6.59375 51.859375 
L 14.59375 51.859375 
L 14.59375 45.125 
Q 17.4375 49.078125 21 51.046875 
Q 24.5625 53.03125 29.640625 53.03125 
Q 36.28125 53.03125 41.359375 49.609375 
Q 46.4375 46.1875 49.015625 39.953125 
Q 51.609375 33.734375 51.609375 26.3125 
Q 51.609375 18.359375 48.75 11.984375 
Q 45.90625 5.609375 40.453125 2.21875 
Q 35.015625 -1.171875 29 -1.171875 
Q 24.609375 -1.171875 21.109375 0.6875 
Q 17.625 2.546875 15.375 5.375 
L 15.375 -19.875 
z
M 14.546875 25.640625 
Q 14.546875 15.625 18.59375 10.84375 
Q 22.65625 6.0625 28.421875 6.0625 
Q 34.28125 6.0625 38.453125 11.015625 
Q 42.625 15.96875 42.625 26.375 
Q 42.625 36.28125 38.546875 41.203125 
Q 34.46875 46.140625 28.8125 46.140625 
Q 23.1875 46.140625 18.859375 40.890625 
Q 14.546875 35.640625 14.546875 25.640625 
z
" id="ArialMT-70"/>
     </defs>
     <g style="fill:#262626;" transform="translate(308.523438 671.150313)scale(0.1 -0.1)">
      <use xlink:href="#ArialMT-41"/>
      <use x="66.699219" xlink:href="#ArialMT-73"/>
      <use x="116.699219" xlink:href="#ArialMT-73"/>
      <use x="166.699219" xlink:href="#ArialMT-75"/>
      <use x="222.314453" xlink:href="#ArialMT-6d"/>
      <use x="305.615234" xlink:href="#ArialMT-70"/>
      <use x="361.230469" xlink:href="#ArialMT-74"/>
      <use x="389.013672" xlink:href="#ArialMT-69"/>
      <use x="411.230469" xlink:href="#ArialMT-6f"/>
      <use x="466.845703" xlink:href="#ArialMT-6e"/>
     </g>
    </g>
    <g id="patch_75">
     <path d="M 280.523438 685.295625 
L 300.523438 685.295625 
L 300.523438 678.295625 
L 280.523438 678.295625 
z
" style="fill:#2ca02c;"/>
    </g>
    <g id="text_101">
     <!-- Error -->
     <defs>
      <path d="M 7.90625 0 
L 7.90625 71.578125 
L 59.671875 71.578125 
L 59.671875 63.140625 
L 17.390625 63.140625 
L 17.390625 41.21875 
L 56.984375 41.21875 
L 56.984375 32.8125 
L 17.390625 32.8125 
L 17.390625 8.453125 
L 61.328125 8.453125 
L 61.328125 0 
z
" id="ArialMT-45"/>
     </defs>
     <g style="fill:#262626;" transform="translate(308.523438 685.295625)scale(0.1 -0.1)">
      <use xlink:href="#ArialMT-45"/>
      <use x="66.699219" xlink:href="#ArialMT-72"/>
      <use x="100" xlink:href="#ArialMT-72"/>
      <use x="133.300781" xlink:href="#ArialMT-6f"/>
      <use x="188.916016" xlink:href="#ArialMT-72"/>
     </g>
    </g>
   </g>
  </g>
 </g>
 <defs>
  <clipPath id="p3cdb68d034">
   <rect height="665.28" width="334.8" x="34.967188" y="31.003125"/>
  </clipPath>
 </defs>
</svg>
